<?xml version="1.0" encoding="UTF-8" standalone="no"?>
<!-- Created with Inkscape (http://www.inkscape.org/) -->
<svg
   xmlns:svg="http://www.w3.org/2000/svg"
   xmlns="http://www.w3.org/2000/svg"
   version="1.0"
   width="595"
   height="390"
   id="svg2">
  <defs
     id="defs5" />
  <path
     d="M 33.135529,157.10456 L 25.246118,151.42419 L 15.463247,142.58805 L 11.991906,135.64536 L 17.041129,124.28461 L 22.405929,120.18212 L 33.135529,123.96903 L 44.180706,123.33788 L 52.701271,119.55096 L 73.529318,112.92386 L 94.672941,102.19426 L 100.98447,91.780235 L 109.50504,76.001411 L 113.92311,56.43567 L 118.97233,46.337223 L 127.49289,36.869929 L 136.32904,28.980517 L 142.95614,28.349364 L 153.68574,22.984564 L 157.47266,24.562446 L 159.36612,39.078964 L 162.20631,59.907011 C 162.20631,59.907011 171.6736,52.648752 171.98918,51.386446 C 172.30475,50.124141 181.77205,44.759341 181.77205,44.759341 L 191.55492,37.816658 L 202.28452,30.873976 L 207.33374,29.61167 L 212.38297,42.234729 L 219.01007,46.652799 L 232.26428,44.759341 L 259.40386,44.443764 L 276.12941,49.177411 L 317.15435,52.017599 L 331.35529,55.488941 L 407.09365,78.841599 L 453.79897,99.985223 L 473.99586,113.87059 L 493.5616,126.80922 L 507.44697,146.69054 L 517.54541,165.62513 L 532.69308,177.30146 L 540.5825,179.19492 L 547.2096,177.61703 L 546.26287,172.88339 C 546.26287,172.88339 540.26692,169.09647 540.5825,167.83416 C 540.89807,166.57186 541.8448,149.21515 541.8448,149.21515 L 547.52518,138.80113 L 560.77939,139.11671 L 568.35322,146.05939 L 575.29591,153.63322 L 577.18937,158.68245 L 573.71802,170.0432 L 566.77534,176.35473 L 565.19746,177.30146 L 574.0336,190.24009 L 575.29591,205.38776 L 575.61148,232.21176 L 571.82457,237.89214 L 561.09497,246.41271 L 559.51708,230.94946 L 551.62767,220.85101 L 549.73421,211.69929 L 554.46786,202.86315 L 559.51708,197.18278 C 559.51708,197.18278 561.09497,191.18682 560.77939,189.92452 C 560.46381,188.66221 559.20151,185.50645 559.20151,185.50645 L 551.94325,186.76875 L 543.73826,191.5024 L 537.74231,193.08028 L 528.90617,188.97779 L 520.07002,185.50645 L 512.18061,180.14165 L 504.92235,179.19492 L 510.91831,194.02701 L 512.81177,206.33449 L 518.17657,236.31426 L 525.43482,252.40866 L 541.8448,277.97035 L 545.00057,287.43765 L 547.84075,313.94607 L 552.88998,326.25355 L 552.5744,335.08969 L 550.68094,340.77007 L 543.42268,346.13487 L 538.68904,346.13487 L 534.58654,346.13487 L 530.48405,350.86852 L 524.4881,361.91369 L 517.54541,366.64734 L 509.656,367.27849 L 505.23793,366.96292 C 505.23793,366.96292 504.92235,367.27849 505.55351,366.64734 C 506.18466,366.01619 498.9264,368.5408 498.9264,368.5408 L 497.6641,363.80715 L 503.0289,349.60621 L 511.23388,341.40122 L 517.86099,333.51181 L 520.70118,314.57722 L 516.59868,301.32301 L 507.13139,277.97035 L 485.04104,252.09308 L 465.47529,239.47002 L 450.32762,228.10927 L 441.80706,225.90024 L 440.86033,239.15445 L 444.96282,252.09308 L 442.75379,263.45384 L 433.28649,283.01958 L 418.13882,308.26569 L 408.04038,329.72489 L 402.99115,341.08565 L 394.78617,343.92584 L 390.36809,342.66353 L 384.05657,342.97911 L 373.32697,353.39313 L 364.17525,358.44235 L 353.13007,357.8112 L 349.65873,354.02428 L 348.39642,349.60621 L 344.29393,343.92584 L 353.44565,336.66758 L 356.28584,334.77412 L 363.22852,333.82739 L 373.32697,324.04452 L 383.74099,309.528 L 400.15097,283.01958 C 400.15097,283.01958 401.41327,267.55633 401.41327,265.66287 C 401.41327,263.76941 399.20424,241.36348 398.57308,240.10118 C 397.94193,238.83887 385.63445,214.22391 385.63445,214.22391 L 379.95407,210.75256 L 368.59332,212.33045 L 348.712,223.06005 L 340.50701,223.06005 L 333.87991,218.01082 L 303.26899,219.27313 L 287.17459,221.79774 L 268.55558,226.53139 L 263.19078,229.056 L 259.71944,239.47002 L 255.93252,265.97845 L 251.19887,269.44979 L 247.41195,312.68376 L 246.14965,337.29873 L 236.68235,349.92179 L 227.84621,347.0816 L 219.01007,356.54889 L 206.70259,361.91369 L 198.81318,355.60216 L 191.23934,352.4464 L 194.07953,344.24141 L 199.12875,338.87661 L 211.12066,330.35605 L 218.06334,318.67972 L 218.06334,311.10588 L 219.01007,265.03172 L 220.27238,242.62579 L 218.69449,231.89619 L 204.80913,235.68311 L 198.4976,240.41675 L 187.45242,242.94136 L 175.77609,242.31021 L 172.62033,247.04386 L 159.68169,249.88405 L 153.05459,257.45788 L 147.05864,268.18748 L 140.74711,282.07285 L 140.74711,294.06475 L 136.96019,299.11398 L 131.59539,297.53609 L 128.7552,297.53609 L 125.91501,302.90089 L 127.17732,318.36414 L 124.65271,323.09779 L 115.50099,326.88471 L 111.39849,323.72894 L 106.34927,323.72894 L 100.98447,324.04452 L 101.9312,316.15511 L 106.34927,305.42551 L 109.50504,292.17129 L 117.71002,275.44574 L 126.23059,262.19153 L 130.96424,256.51115 L 134.75115,242.94136 L 139.80038,233.47407 L 144.8496,224.00678 L 168.83341,212.64602 L 170.09572,208.85911 L 161.25958,199.70739 L 140.43153,190.87125 L 131.27981,183.61299 L 124.33713,183.29741 L 117.71002,185.50645 L 113.60753,189.60894 L 102.56235,189.60894 L 68.164518,189.29336 L 54.279153,188.34663 L 47.967624,182.03511 L 42.9184,176.67031 L 40.393788,174.77685 L 32.504377,180.7728 L 28.717459,182.66626 L 23.668235,182.35068 L 21.143624,176.98588 L 20.828047,172.56781 L 26.192847,164.36282 L 35.975718,158.05129 L 33.135529,157.10456 z"
     id="path2386"
     style="fill:#ffffff;fill-rule:evenodd;stroke:none;stroke-width:1px;stroke-linecap:butt;stroke-linejoin:miter;stroke-opacity:1" />
  <path
     d="M 494.40963,369.59219 C 493.79555,368.85227 493.02219,366.89221 492.69105,365.23649 C 492.20503,362.80638 492.68579,361.54635 495.18511,358.69978 C 496.88799,356.76031 498.28125,354.52382 498.28125,353.7298 C 498.28125,352.93578 499.40625,351.22925 500.78125,349.9375 C 502.15625,348.64575 503.28125,347.0879 503.28125,346.47559 C 503.28125,345.86329 505.53125,343.14615 508.28125,340.4375 C 511.03125,337.72885 513.28125,335.01171 513.28125,334.39941 C 513.28125,333.7871 514.40625,332.22925 515.78125,330.9375 C 518.06573,328.79134 518.28125,327.85975 518.28125,320.13122 C 518.28125,313.59132 517.85135,310.96656 516.38529,308.55553 C 515.34251,306.84062 513.92063,302.7375 513.22554,299.4375 C 512.53046,296.1375 511.13364,292.5085 510.1215,291.37305 C 509.10936,290.2376 508.28125,288.11593 508.28125,286.65823 C 508.28125,285.04659 507.51073,283.5955 506.31521,282.95568 C 505.2339,282.37697 503.88294,280.22364 503.31309,278.17049 C 502.74324,276.11735 500.14046,272.11619 497.52912,269.27902 C 494.91779,266.44186 490.30625,261.38102 487.28125,258.03272 C 483.47234,253.81672 480.63346,251.62584 478.04826,250.90723 C 475.99511,250.33652 473.84178,248.98485 473.26307,247.90354 C 472.68437,246.82222 471.62146,245.9375 470.90105,245.9375 C 470.18065,245.9375 468.79982,245.06301 467.83255,243.99418 C 466.86527,242.92535 464.75528,241.76125 463.14367,241.40728 C 461.53207,241.05332 459.50197,239.67781 458.63236,238.3506 C 457.76274,237.0234 456.42928,235.9375 455.66912,235.9375 C 454.90896,235.9375 452.54367,234.3625 450.41293,232.4375 C 445.93865,228.39526 444.76881,228.15796 443.25549,230.98563 C 441.9661,233.39489 443.76309,243.44245 445.94369,246.01624 C 448.12925,248.59589 447.69039,260.79982 445.28125,264.4375 C 444.1885,266.0875 443.29146,268.36984 443.28784,269.50936 C 443.28422,270.64888 441.94377,273.34888 440.30907,275.50936 C 438.67437,277.66984 437.32437,280.20749 437.30907,281.14859 C 437.29377,282.08968 435.25625,285.34583 432.78125,288.38446 C 430.30625,291.42309 428.28125,294.5906 428.28125,295.42337 C 428.28125,296.25614 427.39162,297.82713 426.3043,298.91445 C 425.21698,300.00177 423.66494,302.47677 422.85533,304.41445 C 422.04571,306.35213 420.93073,307.9375 420.37759,307.9375 C 419.82445,307.9375 419.06915,309.55118 418.69915,311.52346 C 418.32914,313.49574 416.95875,316.26145 415.65383,317.66949 C 414.34891,319.07752 413.28125,321.42641 413.28125,322.88924 C 413.28125,324.35208 412.15625,327.07379 410.78125,328.9375 C 409.40625,330.80121 408.28125,333.51322 408.28125,334.96419 C 408.28125,336.81958 407.02027,338.70244 404.03125,341.31015 C 398.88745,345.79776 396.38219,346.52639 390.62545,345.20905 C 386.44017,344.25133 386.10912,344.34211 384.00064,347.02582 C 382.77997,348.5795 378.48275,352.12022 374.45125,354.89409 C 367.24136,359.85486 366.99805,359.9375 359.60246,359.9375 C 352.51963,359.9375 351.9194,359.76165 349.25065,356.90474 C 346.87422,354.36076 346.51182,353.29154 347.00206,350.27053 C 347.45901,347.45467 347.28054,346.77089 346.18387,347.13579 C 345.41243,347.39248 344.55336,348.91537 344.27482,350.52 C 343.91162,352.61237 343.11751,353.53002 341.467,353.76463 C 339.09821,354.10134 334.28125,351.58094 334.28125,350.00479 C 334.28125,348.47572 346.67526,336.20145 348.89937,335.52789 C 350.06433,335.1751 351.82157,333.99793 352.80435,332.91197 C 354.04092,331.54558 355.87924,330.9375 358.77347,330.9375 C 362.26244,330.9375 363.63063,330.29547 367.02717,327.06442 C 369.26647,324.93422 371.83824,321.76107 372.74222,320.01297 C 373.6462,318.26487 375.02016,316.59118 375.79547,316.29367 C 376.57077,315.99616 377.50882,314.78181 377.88002,313.59512 C 378.25121,312.40843 379.61834,310.16547 380.91808,308.61077 C 382.21782,307.05608 383.28125,305.15395 383.28125,304.38383 C 383.28125,303.61371 384.40625,302.24648 385.78125,301.34554 C 387.15625,300.44461 388.28125,298.89376 388.28125,297.89922 C 388.28125,296.90467 389.40625,294.75396 390.78125,293.11987 C 392.15625,291.48577 393.28125,289.03693 393.28125,287.678 C 393.28125,286.31907 394.29375,283.92171 395.53125,282.35053 C 397.60095,279.72277 397.80677,278.28017 398.09971,264.3482 C 398.40219,249.96293 398.28923,248.89619 395.84971,243.10016 C 394.43706,239.74384 393.28125,236.34373 393.28125,235.54436 C 393.28125,234.74498 392.15625,232.75396 390.78125,231.11987 C 389.40625,229.48577 388.28125,227.45657 388.28125,226.61053 C 388.28125,225.76449 387.39688,224.79159 386.31599,224.44853 C 385.05951,224.04973 384.11285,222.55678 383.69115,220.30892 C 383.26194,218.02105 382.28932,216.51168 380.90641,215.98741 C 375.76061,214.0366 356.88661,218.25047 350.48707,222.77893 C 348.99887,223.83201 345.91542,225.00517 343.63496,225.38594 C 339.78682,226.02847 339.22478,225.81437 335.81893,222.40851 C 332.90304,219.49263 331.70055,218.89659 329.96522,219.50701 C 328.76404,219.92954 321.18897,220.53675 313.13173,220.85637 C 300.70718,221.34924 298.16707,221.72332 296.40725,223.31939 C 294.78906,224.78702 293.45927,225.06168 290.36635,224.5671 C 285.22387,223.74478 275.89797,225.94432 269.11481,229.57932 L 263.78125,232.4375 L 263.03778,241.36869 C 262.55767,247.1361 261.58351,251.66356 260.28778,254.14948 C 257.67221,259.16755 257.66957,263.53977 260.28125,264.9375 C 261.38125,265.5262 262.28125,266.86616 262.28125,267.91519 C 262.28125,269.44419 261.43826,269.8835 258.03125,270.13 L 253.78125,270.4375 L 252.65887,282.9375 C 252.04156,289.8125 251.46553,299.80678 251.3788,305.147 C 251.28825,310.72239 250.59524,316.6304 249.75118,319.02273 C 248.94272,321.31415 248.28125,326.65782 248.28125,330.89756 L 248.28125,338.60616 L 243.53125,343.15964 C 240.91875,345.66406 238.27823,348.55111 237.66343,349.57531 C 236.67629,351.2198 236.16269,351.2952 233.27019,350.2203 C 230.0968,349.04101 229.87593,349.13445 226.17903,353.2203 C 224.08036,355.53976 222.34482,357.94825 222.32226,358.57249 C 222.18172,362.46187 207.11689,364.85424 204.28125,361.4375 C 203.59656,360.6125 202.07471,359.9375 200.89935,359.9375 C 199.724,359.9375 198.21049,359.05385 197.53601,357.97383 C 196.69968,356.63466 194.69161,355.79551 191.22184,355.33523 C 186.34989,354.68894 186.16122,354.5495 186.77535,352.0489 C 187.55122,348.88975 190.00342,344.9375 191.18767,344.9375 C 191.66085,344.9375 192.28275,344.03977 192.56968,342.94255 C 192.85661,341.84532 193.92159,340.64067 194.93631,340.26555 C 195.95103,339.89043 198.54976,337.63815 200.71127,335.2605 C 202.87278,332.88285 205.06965,330.9375 205.59319,330.9375 C 207.52301,330.9375 213.21929,323.77921 213.77274,320.65859 C 214.08694,318.88699 214.46086,305.2875 214.60367,290.4375 C 214.80796,269.19467 215.16893,262.90443 216.29653,260.9375 C 218.10562,257.78183 218.37439,237.64202 216.63077,235.89155 C 215.76137,235.01873 214.41765,235.34841 211.13077,237.24099 C 208.73854,238.61844 204.75625,240.06852 202.28125,240.4634 C 199.80625,240.85829 196.58678,242.0265 195.12688,243.05944 C 193.23714,244.3965 190.73291,244.9375 186.43358,244.9375 C 181.45946,244.9375 180.13891,245.30263 178.94422,247.00829 C 177.79413,248.65028 175.94495,249.22702 170.01413,249.79353 C 163.54798,250.41117 162.03834,250.94359 158.87306,253.72274 C 156.85929,255.49086 154.77732,256.9375 154.24645,256.9375 C 153.71559,256.9375 153.28125,257.696 153.28125,258.62305 C 153.28125,259.5501 152.3282,261.32307 151.16337,262.56298 C 149.99853,263.80289 148.64909,266.93913 148.16462,269.53241 C 147.66831,272.18899 146.47808,274.81176 145.43829,275.54006 C 143.9059,276.61338 143.48378,278.73851 142.95006,288.06678 C 142.35438,298.47784 142.10947,299.50736 139.60718,302.11919 C 136.45394,305.41046 134.6558,305.69296 133.81057,303.02988 C 132.99837,300.47087 130.70764,299.7188 129.21253,301.5203 C 128.35992,302.54763 128.18656,305.28853 128.63123,310.71086 C 129.42574,320.39923 128.502,323.99413 124.71861,325.9375 C 123.11248,326.7625 121.20651,328.225 120.48311,329.1875 C 118.52143,331.79758 114.6172,331.37986 112.6302,328.34732 C 111.22635,326.20476 110.41283,325.86118 107.92277,326.3592 C 106.26711,326.69033 104.17252,327.63091 103.26813,328.44938 C 99.563165,331.80232 98.28125,329.76659 98.28125,320.53003 C 98.28125,315.16284 98.632276,313.95636 100.78125,311.9375 C 102.71682,310.11913 103.28125,308.59066 103.28125,305.16756 C 103.28125,302.2939 104.00861,299.72476 105.35915,297.8281 C 106.50199,296.22312 107.81292,292.25079 108.27232,289.00068 C 109.08957,283.21892 111.15511,279.31294 116.03125,274.32842 C 117.26875,273.06341 118.28125,271.28541 118.28125,270.37731 C 118.28125,269.46921 119.40625,267.38923 120.78125,265.75513 C 122.15625,264.12104 123.28125,262.21962 123.28125,261.52975 C 123.28125,260.83989 124.40625,259.67338 125.78125,258.9375 C 127.735,257.89188 128.28125,256.81535 128.28125,254.01056 C 128.28125,252.03663 129.40625,248.30828 130.78125,245.72535 C 132.15625,243.14242 133.28125,239.46564 133.28125,237.55473 C 133.28125,234.33765 135.31758,230.9375 137.24427,230.9375 C 137.69536,230.9375 138.37158,229.7 138.74697,228.1875 C 139.46213,225.30606 142.96556,220.9375 144.56121,220.9375 C 145.07344,220.9375 146.82952,219.8125 148.46362,218.4375 C 150.09771,217.0625 152.46449,215.9375 153.72312,215.9375 C 154.98175,215.9375 157.10865,215.07451 158.44957,214.01974 C 159.7905,212.96497 162.55118,211.78989 164.58443,211.40845 C 171.5262,210.10616 167.8021,205.18228 156.96518,201.33453 C 154.86634,200.58931 151.94134,199.13692 150.46518,198.10698 C 148.98902,197.07703 146.25679,195.94142 144.39357,195.58339 C 142.53035,195.22536 139.96433,193.80857 138.69132,192.43496 C 137.41831,191.06136 135.30001,189.9375 133.98399,189.9375 C 132.66797,189.9375 130.77674,189.0375 129.78125,187.9375 C 128.51469,186.53797 126.70128,185.9375 123.74127,185.9375 C 120.31053,185.9375 119.19554,186.41937 117.84028,188.48775 L 116.1693,191.038 L 87.475273,190.92803 L 58.78125,190.81806 L 51.03966,187.12778 C 46.781785,185.09812 43.287395,182.9875 43.274347,182.4375 C 43.2613,181.8875 42.879226,180.85197 42.425296,180.13633 C 41.474019,178.6366 37.290542,180.03357 33.78125,183.02279 C 32.68125,183.95978 29.932913,185.02761 27.673835,185.39576 C 23.918688,186.00771 23.339781,185.79577 20.923835,182.92458 C 15.167034,176.08301 19.24065,163.90157 28.118762,161.40941 C 30.641691,160.7012 31.875002,159.73328 32.082564,158.29857 C 32.327647,156.60451 31.719305,156.10799 28.822714,155.63794 C 25.221638,155.05357 13.353451,145.6486 13.30451,143.34051 C 13.291717,142.73717 12.364787,141.18683 11.244666,139.89532 C 9.7302837,138.14922 9.3694036,136.76383 9.8372355,134.49231 C 11.186729,127.93994 13.872632,121.70593 15.78125,120.69619 C 16.88125,120.11423 18.093193,119.15775 18.474456,118.57067 C 19.504873,116.98401 30.020985,117.72086 32.855897,119.57837 C 36.074343,121.68717 45.755823,121.0361 47.549467,118.59024 C 48.27223,117.60466 51.21447,116.51525 54.66943,115.95396 C 57.907928,115.42784 61.402676,114.2326 62.435536,113.29787 C 63.468395,112.36315 66.771759,111.26478 69.776345,110.85704 C 72.837671,110.44161 76.406785,109.19732 77.895098,108.02661 C 79.355826,106.8776 81.54854,105.9375 82.767795,105.9375 C 83.98705,105.9375 86.397267,104.5875 88.123834,102.9375 C 89.850401,101.2875 91.717142,99.9375 92.272148,99.9375 C 92.827154,99.9375 93.28125,99.275691 93.28125,98.466813 C 93.28125,97.657935 95.278556,94.851695 97.719708,92.230725 C 101.5166,88.154148 102.32205,86.523759 103.29196,80.951412 C 103.91554,77.368761 105.16103,73.624529 106.05971,72.630899 C 107.09584,71.485291 107.84508,68.446466 108.1075,64.325301 C 108.45419,58.880611 108.89838,57.579247 110.8456,56.303378 C 112.44191,55.257434 113.26562,53.63054 113.47557,51.108976 C 113.69587,48.463005 114.3944,47.168371 115.97643,46.473974 C 117.18378,45.944035 118.45053,44.369035 118.79142,42.973974 C 119.54838,39.876225 128.09461,30.9375 130.29938,30.9375 C 131.1757,30.9375 133.41754,29.8125 135.28125,28.4375 C 137.27478,26.966722 140.02125,25.9375 141.95248,25.9375 C 144.35051,25.9375 145.67658,25.26378 146.87321,23.4375 C 147.77414,22.0625 149.28977,20.9375 150.24127,20.9375 C 151.19277,20.9375 152.78576,20.0375 153.78125,18.9375 C 155.8937,16.603272 158.28125,16.307903 158.28125,18.380796 C 158.28125,19.174609 159.21928,20.481112 160.36576,21.284137 C 162.20383,22.571576 162.5541,24.26291 163.3286,35.590841 C 163.81169,42.656504 164.22366,49 164.2441,49.6875 C 164.30244,51.650464 168.78006,51.148789 170.76355,48.957058 C 171.7493,47.867814 173.97642,46.71011 175.7127,46.384382 C 177.62549,46.02554 179.24626,44.934092 179.82541,43.614824 C 180.40503,42.294494 181.8638,41.312942 183.53163,41.121041 C 185.04435,40.946988 186.72235,39.981821 187.26053,38.976224 C 187.7987,37.970628 189.59853,36.673944 191.26014,36.094703 C 192.92175,35.515463 194.28125,34.643444 194.28125,34.156884 C 194.28125,32.745135 201.79229,27.098325 204.61118,26.390828 C 208.18545,25.493743 212.27576,29.619397 212.29599,34.142045 C 212.3041,35.954545 212.8701,38.542858 213.55376,39.893851 L 214.79679,42.350201 L 238.60037,42.156062 C 258.17913,41.996381 263.05863,42.237325 266.0926,43.513602 C 268.12136,44.367025 275.18125,45.477143 281.78125,45.980531 C 294.36522,46.940321 303.45923,48.311427 305.46559,49.551426 C 306.11995,49.955844 312.15909,50.582104 318.88589,50.943116 C 327.67351,51.414727 331.82359,52.062833 333.62845,53.245425 C 335.01005,54.150684 338.08463,55.19052 340.46085,55.556172 C 342.83707,55.921824 346.90379,57.282208 349.49801,58.579247 C 352.24103,59.950687 356.00709,60.939644 358.49801,60.942623 C 361.29384,60.945968 364.1703,61.803284 366.78125,63.411414 C 369.57483,65.132028 372.26277,65.884494 375.69339,65.90629 C 378.98799,65.927223 381.95165,66.714261 384.69339,68.296363 C 386.94171,69.593737 391.21347,70.930793 394.18618,71.267597 C 397.57921,71.652022 400.39496,72.635145 401.75063,73.908734 C 403.07852,75.156225 405.26977,75.9375 407.44071,75.9375 C 409.62886,75.9375 411.61958,76.653869 412.67632,77.821554 C 413.6141,78.857784 416.49634,80.284111 419.08131,80.991169 C 421.66628,81.698228 424.85444,83.100403 426.16611,84.107115 C 427.47778,85.113827 429.97786,85.9375 431.72183,85.9375 C 433.5338,85.9375 436.34488,87.00889 438.28125,88.4375 C 440.14496,89.8125 442.61996,90.9375 443.78125,90.9375 C 444.94254,90.9375 447.41754,92.0625 449.28125,93.4375 C 451.14496,94.8125 453.24701,95.9375 453.95248,95.9375 C 454.65794,95.9375 455.97227,97.0625 456.87321,98.4375 C 457.77414,99.8125 459.30776,100.9375 460.28125,100.9375 C 461.25474,100.9375 462.78836,102.0625 463.68929,103.4375 C 464.59023,104.8125 466.22139,105.9375 467.31409,105.9375 C 468.40679,105.9375 470.06917,106.83486 471.00826,107.93164 C 471.94735,109.02841 474.19294,110.41331 475.99847,111.00919 C 477.804,111.60507 479.28125,112.68262 479.28125,113.40376 C 479.28125,114.1249 480.81248,115.00218 482.68397,115.35327 C 484.72071,115.73537 486.73716,116.98436 487.70703,118.46456 C 488.59821,119.82468 489.91975,120.9375 490.64379,120.9375 C 491.36783,120.9375 492.4728,122.0625 493.0993,123.4375 C 493.72579,124.8125 494.8927,125.9375 495.69242,125.9375 C 496.49215,125.9375 497.41935,126.79724 497.75286,127.84804 C 498.08637,128.89884 499.46669,130.48421 500.82024,131.37109 C 502.1738,132.25798 503.28125,133.92077 503.28125,135.0662 C 503.28125,136.21162 504.40625,138.48577 505.78125,140.11987 C 507.15625,141.75396 508.28125,143.97055 508.28125,145.04561 C 508.28125,146.12067 509.06875,147.29082 510.03125,147.64594 C 512.34694,148.50033 513.24735,149.9331 513.26594,152.79314 C 513.27436,154.08875 514.40625,156.48577 515.78125,158.11987 C 517.15625,159.75396 518.28125,161.96756 518.28125,163.03898 C 518.28125,164.19674 519.29544,165.37259 520.78125,165.9375 C 522.15625,166.46027 523.28125,167.58378 523.28125,168.43419 C 523.28125,169.28459 524.51875,170.50661 526.03125,171.14978 C 527.54375,171.79295 529.68125,173.07788 530.78125,174.00517 C 531.88125,174.93246 534.43618,176.22073 536.45888,176.868 C 543.04724,178.97627 547.19527,173.89294 541.78125,170.34554 C 539.33041,168.73969 539.28125,168.45614 539.28125,155.92532 C 539.28125,143.41717 539.3402,143.07512 542.03125,139.96955 C 545.53272,135.92872 550.77396,133.59564 553.30597,134.95073 C 554.32006,135.49345 556.52336,135.9375 558.2022,135.9375 C 560.56869,135.9375 562.60595,137.24752 567.26794,141.76705 C 570.57526,144.9733 573.28125,148.04485 573.28125,148.59273 C 573.28125,149.14061 574.40625,150.64575 575.78125,151.9375 C 577.81337,153.84657 578.2801,155.23606 578.27509,159.36181 C 578.2717,162.15344 577.53532,165.7875 576.63868,167.4375 C 575.74205,169.0875 574.37363,171.6514 573.59776,173.13505 C 572.82189,174.61871 571.30828,176.11153 570.23417,176.45244 C 567.60526,177.28682 567.77617,178.56045 570.78125,180.52946 C 572.15625,181.43039 573.28125,182.90993 573.28125,183.81732 C 573.28125,184.72471 574.1143,187.03545 575.13248,188.95231 C 576.15065,190.86916 577.29744,194.9125 577.6809,197.9375 C 578.06436,200.9625 579.11376,205.80086 580.0129,208.68941 C 581.59996,213.78796 581.58119,214.10177 579.37019,219.4362 C 577.53625,223.86091 577.22786,225.91385 577.78671,229.97719 C 578.40178,234.44932 578.21345,235.2892 576.13099,237.36102 C 574.83863,238.64678 573.01898,240.81618 572.08731,242.18192 C 571.15564,243.54765 568.97679,244.94839 567.24542,245.29467 C 565.25986,245.69178 563.90371,246.6652 563.57273,247.93088 C 562.85664,250.66921 558.81646,250.53971 556.83795,247.71499 C 554.85605,244.88544 554.87078,244.7168 557.34915,241.85921 C 560.42448,238.31332 559.19162,233.52321 553.76604,227.9375 C 548.22585,222.23379 547.11949,219.24533 547.91035,212.12022 C 548.5616,206.25289 551.18881,201.45058 556.00488,197.3241 C 558.42248,195.25267 559.65892,188.98183 557.98066,187.30358 C 557.1638,186.48672 546.89345,191.49491 545.19931,193.53623 C 543.34741,195.76764 535.0891,195.36188 533.01328,192.9375 C 531.91898,191.65946 530.06334,190.9375 527.87269,190.9375 C 525.26853,190.9375 523.20459,189.87908 519.28564,186.53393 C 516.44823,184.11196 513.23396,181.89689 512.14281,181.61155 C 509.53771,180.9303 508.38817,183.8113 510.61531,185.43982 C 511.52778,186.10703 512.54742,188.17946 512.88118,190.04521 C 513.21494,191.91097 514.5665,196.7512 515.88464,200.80127 C 517.4753,205.68871 518.28125,210.49748 518.28125,215.10093 C 518.28125,219.70501 518.85248,223.11276 519.98035,225.23716 C 520.91485,226.99735 521.98131,231.55846 522.35026,235.37296 C 522.85848,240.62729 523.51797,242.71077 525.07098,243.96832 C 526.19843,244.88127 527.6102,247.44539 528.20824,249.66638 C 528.80629,251.88736 529.96452,254.25967 530.78208,254.93819 C 531.59964,255.6167 533.66288,258.60888 535.36705,261.58747 C 537.07123,264.56605 539.47945,268.22583 540.71866,269.72029 C 541.95787,271.21476 543.25598,273.90412 543.60334,275.69665 C 543.9507,277.48919 545.10047,280.18919 546.15836,281.69665 C 547.73511,283.94346 548.1852,286.85026 548.65538,297.82311 C 549.09648,308.11746 549.62784,311.81248 550.95627,313.82311 C 552.69664,316.45724 553.85575,321.77241 554.91599,331.98072 C 555.69043,339.43721 553.1991,344.96147 548.52006,346.16303 C 546.7264,346.62363 544.70565,347.88631 544.02951,348.96899 C 542.5555,351.32925 541.67777,351.39272 537.88247,349.41345 C 536.28814,348.58201 534.82616,348.05926 534.63362,348.2518 C 534.44108,348.44434 533.88953,350.71092 533.40796,353.28865 C 532.84984,356.2761 531.5804,358.85768 529.90681,360.40871 C 528.46275,361.74702 527.28125,363.21116 527.28125,363.66235 C 527.28125,365.17881 520.52937,368.15103 518.52768,367.51571 C 517.33917,367.1385 516.06464,367.49357 515.29999,368.41492 C 513.83009,370.18604 508.19239,370.44864 506.56552,368.82177 C 505.74455,368.0008 504.84038,368.13289 503.14301,369.32177 C 500.33791,371.28654 495.92911,371.42305 494.40963,369.59219 z M 503.04918,362.9375 C 503.73614,361.8375 504.98052,360.9375 505.81447,360.9375 C 506.64843,360.9375 507.75848,359.8125 508.28125,358.4375 C 508.9513,356.67512 509.98229,355.9375 511.77555,355.9375 C 514.0432,355.9375 514.24804,356.23604 513.66241,358.6875 C 513.3011,360.2 512.62143,361.9289 512.15204,362.52951 C 510.13326,365.11263 515.23809,365.89936 517.36771,363.33332 C 518.09995,362.45103 519.74158,361.33278 521.01578,360.84833 C 522.28998,360.36388 523.57844,359.17326 523.87903,358.20251 C 524.17962,357.23175 524.85429,355.7625 525.3783,354.9375 C 525.90232,354.1125 527.24091,351.525 528.35295,349.1875 C 529.46499,346.85 530.7557,344.9375 531.2212,344.9375 C 531.68669,344.9375 532.55407,342.17546 533.14871,338.79964 C 533.88508,334.6192 534.87589,332.2093 536.25556,331.24294 C 537.36969,330.46257 538.28125,329.20117 538.28125,328.43981 C 538.28125,326.40882 540.15984,325.59185 541.76561,326.92452 C 543.52722,328.38652 542.73671,330.58513 540.21208,331.24534 C 538.66421,331.65011 538.28125,332.64515 538.28125,336.26209 C 538.28125,344.68135 539.68394,345.62598 545.28125,340.97618 C 548.693,338.14197 548.7779,337.8953 548.64841,331.1929 C 548.55473,326.34359 547.8843,323.07973 546.37364,320.11861 C 544.64838,316.73682 544.08036,313.20742 543.45365,301.9754 C 542.85572,291.25891 542.2961,287.61139 541.03631,286.21934 C 540.13471,285.22308 538.97761,282.54128 538.465,280.25978 C 537.91021,277.7906 535.66063,273.81313 532.90711,270.43289 C 530.36289,267.30959 528.28125,264.20784 528.28125,263.54011 C 528.28125,262.87238 527.15625,260.80121 525.78125,258.9375 C 524.40625,257.07379 523.28125,254.93749 523.28125,254.19017 C 523.28125,253.44284 522.15625,251.17581 520.78125,249.15231 C 519.40625,247.12882 518.28125,244.77284 518.28125,243.91681 C 518.28125,243.06077 517.34066,240.57773 516.19105,238.39894 C 514.89198,235.93688 513.57645,230.3516 512.71537,223.64233 C 511.95336,217.70499 510.64395,210.82677 509.80557,208.35739 C 508.96719,205.88801 508.28125,202.29477 508.28125,200.37242 C 508.28125,198.45007 507.15625,194.20435 505.78125,190.9375 C 504.40625,187.67065 503.28125,183.94663 503.28125,182.66191 C 503.28125,181.37719 502.15625,178.80121 500.78125,176.9375 C 499.40625,175.07379 498.28125,172.38152 498.28125,170.95466 C 498.28125,169.52781 497.3703,166.57773 496.25691,164.39894 C 495.14352,162.22015 493.95432,158.70824 493.61426,156.5947 C 493.27419,154.48116 492.002,151.55616 490.78717,150.0947 C 489.57234,148.63324 488.00066,146.34084 487.29455,145.00049 C 485.74778,142.06438 484.76465,140.80186 480.53125,136.31524 C 477.05575,132.63185 476.23258,128.27714 478.82385,127.28278 C 480.67374,126.57291 491.24906,137.75385 492.78125,142.03947 C 493.33125,143.57785 494.79375,145.77678 496.03125,146.92597 C 497.26875,148.07516 498.28125,150.05314 498.28125,151.32147 C 498.28125,152.5898 499.17245,154.43405 500.26169,155.4198 C 501.35094,156.40555 502.53449,158.8378 502.89182,160.82479 C 503.24915,162.81178 504.94545,166.79652 506.66138,169.67976 C 509.13421,173.8348 510.54647,175.13565 513.47094,175.95206 C 515.68123,176.56911 517.41231,177.77508 517.78833,178.9598 C 518.13356,180.04754 518.81252,180.9375 519.29712,180.9375 C 519.78172,180.9375 521.3921,182.0625 522.87575,183.4375 C 524.65403,185.08556 526.73253,185.9375 528.97502,185.9375 C 531.31902,185.9375 533.09717,186.71485 534.69367,188.4375 C 538.15578,192.17317 542.70369,191.58678 544.37567,187.18914 C 545.08141,185.33292 545.83694,184.84955 547.39552,185.25713 C 552.15841,186.50265 554.28609,182.65024 549.78125,180.9375 C 548.40625,180.41473 547.28125,179.50833 547.28125,178.9233 C 547.28125,178.33826 546.26875,178.81631 545.03125,179.98563 C 543.21337,181.70335 541.87991,182.02816 538.08809,181.67684 C 535.50686,181.43768 532.18483,180.38599 530.70582,179.33975 C 529.22681,178.29351 527.10243,176.90921 525.98498,176.26352 C 522.54457,174.27558 513.28125,165.65025 513.28125,164.43472 C 513.28125,163.803 512.15625,162.22925 510.78125,160.9375 C 509.40625,159.64575 508.28125,157.5655 508.28125,156.31471 C 508.28125,155.06392 507.15625,152.82665 505.78125,151.343 C 504.40625,149.85935 503.28125,147.87185 503.28125,146.92634 C 503.28125,145.98082 502.44488,144.13403 501.42265,142.82236 C 500.40041,141.51069 498.84003,139.02562 497.95514,137.29999 C 494.95687,131.45309 484.859,122.46127 476.84341,118.5007 C 472.66747,116.43732 468.79182,113.8915 468.23084,112.84331 C 467.66986,111.79511 466.51793,110.9375 465.67098,110.9375 C 464.82404,110.9375 461.1427,108.6875 457.49023,105.9375 C 453.83776,103.1875 450.13397,100.9375 449.25959,100.9375 C 448.38521,100.9375 446.14496,99.8125 444.28125,98.4375 C 442.41754,97.0625 440.1408,95.9375 439.22183,95.9375 C 438.30286,95.9375 436.39708,95.029848 434.98676,93.920496 C 433.57645,92.811144 430.47826,91.532807 428.1019,91.079748 C 425.72554,90.626689 422.20625,89.286023 420.28125,88.10049 C 418.35625,86.914958 415.82944,85.943294 414.66611,85.941238 C 413.50278,85.939182 411.44227,85.065395 410.08719,83.99949 C 408.73211,82.933584 406.30892,81.744729 404.70233,81.35759 C 403.09574,80.970451 400.19197,79.85852 398.24953,78.886632 C 396.30708,77.914745 392.06894,76.629896 388.83145,76.031413 C 385.59396,75.43293 382.22591,74.292402 381.34689,73.496908 C 380.46788,72.701413 376.61334,71.54968 372.78125,70.9375 C 368.94916,70.32532 365.13148,69.219776 364.29753,68.480734 C 363.46358,67.741693 359.48984,66.633564 355.46702,66.018227 C 351.44419,65.402889 347.13996,64.235801 345.90205,63.424697 C 344.66415,62.613594 341.43056,61.6691 338.71629,61.325823 C 336.00202,60.982545 332.35124,59.889087 330.60345,58.895917 C 328.19531,57.527504 323.56729,56.83651 311.49503,56.042902 C 302.73319,55.466916 294.36748,54.540585 292.90458,53.98439 C 290.78705,53.179306 264.65672,49.9375 260.28494,49.9375 C 259.70568,49.9375 258.84131,50.96443 258.36411,52.219567 C 257.15939,55.388212 251.20631,61.9375 249.53083,61.9375 C 248.61269,61.9375 248.25467,61.01392 248.46483,59.1875 C 248.69139,57.218494 249.42024,56.346748 251.03125,56.117949 C 252.47721,55.91259 253.28125,55.108548 253.28125,53.867949 C 253.28125,52.806202 254.18125,51.0375 255.28125,49.9375 C 256.38125,48.8375 257.28125,47.7125 257.28125,47.4375 C 257.28125,46.57101 253.72468,46.895654 252.73125,47.852824 C 252.20875,48.356252 250.6747,48.918752 249.32224,49.102824 C 247.68793,49.325257 246.64412,50.275942 246.20989,51.9375 C 245.6917,53.920337 245.41435,54.106351 244.86916,52.836703 C 244.4911,51.956264 244.31666,50.623942 244.48152,49.875987 C 244.69812,48.89322 242.87487,48.275736 237.90729,47.649488 C 229.7935,46.626606 227.45334,47.080371 223.44407,50.453949 L 220.45275,52.970982 L 218.35775,50.307624 C 216.32573,47.724331 216.20291,47.698425 214.272,49.44587 C 211.732,51.74454 211.7355,54.115582 214.28125,55.705427 C 216.83844,57.302419 216.83844,59.568933 214.28125,60.9375 C 213.18125,61.526202 212.28125,62.691724 212.28125,63.527548 C 212.28125,64.363372 211.3321,67.130733 210.17204,69.67724 C 208.62199,73.079798 208.19963,75.517503 208.57888,78.872376 C 208.94026,82.069099 208.60374,84.270071 207.45622,86.215043 C 205.85613,88.927099 205.88649,89.047598 208.7437,91.325859 C 211.64169,93.636634 211.64938,93.670117 209.54132,94.798316 C 208.3706,95.424867 206.70815,95.9375 205.84699,95.9375 C 204.98583,95.9375 204.28125,96.34922 204.28125,96.852433 C 204.28125,97.355646 201.97247,99.605646 199.15062,101.85243 C 193.32282,106.4926 188.58732,107.24357 185.37997,104.03622 C 184.33427,102.99052 182.53427,101.83519 181.37997,101.46883 C 178.72824,100.62721 178.68173,97.895304 181.28125,95.669528 C 182.38125,94.727679 183.28125,93.277671 183.28125,92.447287 C 183.28125,91.616904 184.06875,90.93535 185.03125,90.932722 C 186.92622,90.927549 194.28125,84.664363 194.28125,83.05587 C 194.28125,82.514893 195.18125,81.786626 196.28125,81.4375 C 199.01553,80.569673 198.86771,76.573202 196.03125,74.678434 C 193.94031,73.281679 193.89496,73.043298 195.38965,71.306462 C 196.27426,70.278533 197.52604,67.866901 198.17137,65.94728 C 199.15225,63.029501 199.09347,62.273361 197.81297,61.337037 C 195.70225,59.793637 195.89565,57.659403 198.28125,56.169573 C 201.169,54.36614 200.82835,51.9375 197.68763,51.9375 C 195.97324,51.9375 194.92422,52.586786 194.59315,53.852806 C 194.31767,54.906224 193.03979,56.03227 191.75342,56.35513 C 190.46704,56.67799 189.12923,57.841102 188.78051,58.939824 C 188.43179,60.038546 187.76453,60.9375 187.29772,60.9375 C 186.8309,60.9375 184.56984,62.689752 182.27313,64.831394 C 178.61609,68.241535 178.23734,68.986936 179.22446,70.831394 C 180.44242,73.107166 181.79784,73.528683 182.78125,71.9375 C 184.24608,69.56736 186.82957,71.050525 188.0505,74.962542 C 189.11521,78.374 189.06814,79.448933 187.7417,82.01399 C 186.88094,83.678514 185.54234,85.283817 184.76703,85.58133 C 183.99173,85.878843 183.08493,86.980691 182.75193,88.029881 C 181.9721,90.486894 176.50645,90.687924 175.58758,88.29339 C 175.24058,87.38913 175.6687,84.728129 176.53896,82.380055 C 177.40922,80.03198 177.85725,77.84683 177.53458,77.524164 C 176.31918,76.308766 174.72185,77.014226 173.76838,79.1875 C 172.58095,81.894051 168.53575,82.764292 167.6669,80.500107 C 167.33393,79.63239 167.37535,77.249448 167.75895,75.204679 C 168.30624,72.287372 170.53678,69.368696 178.11883,61.648697 C 183.43316,56.237675 188.68125,51.393047 189.78125,50.882856 C 190.88125,50.372666 192.96256,49.005339 194.40637,47.844352 C 196.59094,46.087725 197.3964,45.928759 199.20583,46.897134 C 200.40171,47.537151 202.5954,47.920558 204.0807,47.74915 C 206.66365,47.451071 206.80302,47.139826 207.28125,40.601509 C 207.81113,33.356965 206.65373,30.578841 204.29148,33.425169 C 203.60117,34.256951 202.47834,34.9375 201.79631,34.9375 C 201.11428,34.9375 198.85751,36.2875 196.78125,37.9375 C 194.70499,39.5875 192.34558,40.9375 191.5381,40.9375 C 190.73062,40.9375 188.73298,42.0625 187.09888,43.4375 C 185.46479,44.8125 183.55407,45.9375 182.85284,45.9375 C 182.15161,45.9375 180.16523,47.2875 178.43867,48.9375 C 176.7121,50.5875 174.84536,51.9375 174.29035,51.9375 C 173.73535,51.9375 173.28125,52.560746 173.28125,53.32249 C 173.28125,54.084235 172.19038,55.422246 170.85709,56.295849 C 169.52381,57.169451 168.11223,58.908706 167.72026,60.160859 C 167.32829,61.413011 165.89057,63.773219 164.52532,65.405764 C 162.32183,68.040671 162.11093,68.995283 162.6474,73.905764 C 162.97979,76.948219 163.54333,80.714153 163.89971,82.274507 C 164.48403,84.832896 164.31362,85.078417 162.16446,84.774507 C 160.29013,84.50946 159.71403,83.73939 159.46644,81.16809 C 159.26095,79.03397 158.30603,77.344615 156.71644,76.30308 C 153.79765,74.390612 153.56939,72.29821 156.18887,71.466821 C 159.02469,70.566766 159.3446,68.570808 157.21446,65.068069 C 155.75153,62.66247 154.60524,61.9375 152.26456,61.9375 C 150.47942,61.9375 148.98021,62.558434 148.64288,63.4375 C 148.32629,64.2625 147.35692,64.9375 146.48871,64.9375 C 145.6205,64.9375 143.87336,65.911512 142.60618,67.10197 C 140.4467,69.130692 140.18686,69.16205 138.46299,67.60197 C 137.45142,66.686512 136.0967,65.9375 135.45251,65.9375 C 133.73454,65.9375 134.02188,70.623995 135.78125,71.299126 C 137.67175,72.024581 137.75741,74.9375 135.88824,74.9375 C 135.12208,74.9375 134.23621,74.2625 133.91962,73.4375 C 133.54031,72.449037 131.97571,71.9375 129.33169,71.9375 C 125.92427,71.9375 125.22803,72.301348 124.71364,74.350842 C 124.35281,75.788518 123.13227,77.00906 121.69459,77.369894 C 120.36725,77.703034 119.28125,78.642031 119.28125,79.456552 C 119.28125,80.271073 118.45656,80.9375 117.44861,80.9375 C 115.50501,80.9375 110.66028,86.367431 107.98286,91.546646 C 107.09885,93.256676 104.98063,95.233595 103.2757,95.939798 C 101.46669,96.689117 99.394887,98.725772 98.300454,100.83065 C 95.853881,105.53605 90.104334,109.96516 84.93496,111.12664 C 82.66667,111.63629 80.07883,112.7157 79.184203,113.52533 C 78.289576,114.33495 74.958248,115.42043 71.78125,115.9375 C 68.604252,116.45457 65.250044,117.56075 64.327453,118.39569 C 63.404862,119.23062 61.104543,120.19229 59.215633,120.53274 C 57.326722,120.87318 53.08125,122.17643 49.78125,123.42884 C 46.48125,124.68126 41.982281,126.02436 39.783542,126.41351 C 34.636347,127.32451 34.02725,128.47084 36.36891,132.83987 C 37.420697,134.80228 38.28125,138.12539 38.28125,140.22457 C 38.28125,143.26803 40.142208,148.19981 43.056383,152.8793 C 43.36615,153.37671 48.893775,151.61619 54.53125,149.22461 C 56.845173,148.24298 58.28125,146.95854 58.28125,145.87058 C 58.28125,144.90083 59.18737,143.05667 60.29485,141.77245 C 61.40233,140.48823 62.912256,138.57688 63.650242,137.52502 C 65.177698,135.34791 68.28125,135.95992 68.28125,138.43823 C 68.28125,139.29816 67.638029,141.54118 66.851869,143.42273 C 65.794395,145.95362 64.558504,147.06611 62.101869,147.69846 C 59.183656,148.44961 58.743639,149.00062 58.470885,152.24535 C 58.239336,154.99988 58.541784,155.9375 59.661868,155.9375 C 61.80882,155.9375 62.495359,157.4784 63.178303,163.82995 L 63.78125,169.4375 L 68.668328,169.74789 L 73.555406,170.05828 L 72.927106,166.91678 C 72.58154,165.18895 71.394855,162.62609 70.290028,161.22153 C 69.1852,159.81697 68.28125,157.85503 68.28125,156.86166 C 68.28125,155.86829 67.83125,154.77742 67.28125,154.4375 C 66.123125,153.72174 65.967349,148.9764 67.046563,147.28832 C 67.450641,146.65626 68.863381,145.98126 70.185985,145.78832 C 71.937712,145.53276 72.945436,144.40872 73.896982,141.64895 C 75.45764,137.12259 74.315026,133.72955 70.670978,132.06921 C 68.108423,130.90163 67.390327,127.21661 69.562897,126.38292 C 70.267802,126.11242 73.268083,126.23988 76.230187,126.66617 C 81.77082,127.46355 84.093474,129.65083 80.419725,130.61154 C 77.741736,131.31185 76.921509,134.0529 77.745564,139.5481 C 78.337149,143.49307 78.08244,144.35534 75.344298,147.67718 C 71.767224,152.01679 71.47427,154.43525 74.339902,155.96889 C 76.572761,157.16388 82.28125,156.35883 82.28125,154.84894 C 82.28125,154.33764 83.63125,152.50665 85.28125,150.78008 C 87.551982,148.40398 88.28125,146.70457 88.28125,143.78919 C 88.28125,139.01966 90.252418,138.6839 93.28125,142.9375 C 94.67453,144.89418 96.282449,145.9375 97.904724,145.9375 C 99.625782,145.9375 102.21992,147.79979 106.32566,151.98275 C 109.58917,155.30763 112.73008,158.90763 113.30547,159.98275 C 114.74829,162.67869 117.09968,162.43011 118.4632,159.4375 C 119.92292,156.23377 122.06563,156.24018 123.28674,159.45194 C 123.81253,160.83488 125.19136,163.24947 126.35079,164.81769 L 128.45885,167.66899 L 126.12005,170.19293 C 124.83371,171.5811 123.07396,173.74264 122.20948,174.99636 C 120.48239,177.50112 118.28125,176.94334 118.28125,174.00093 C 118.28125,170.55932 116.28107,170.16193 103.78125,171.12007 C 92.200376,172.00777 80.861743,172.25298 76.850514,171.70248 C 75.51211,171.51879 74.726833,172.20448 74.290864,173.9375 C 73.693362,176.31263 73.318439,176.43305 66.78439,176.34837 C 60.901262,176.27212 59.699376,175.94679 58.472068,174.09837 C 57.682949,172.90989 56.276384,171.9375 55.346369,171.9375 C 52.907821,171.9375 47.893326,177.4842 48.619968,179.3778 C 49.333905,181.23829 53.376912,181.44184 55.114003,179.70475 C 56.091008,178.72774 56.470484,178.94513 56.943142,180.75257 C 57.512707,182.9306 57.843222,183.00323 64.292768,182.36771 C 70.338715,181.77195 71.267796,181.92405 73.16363,183.81988 C 75.027241,185.68349 76.570717,185.96173 86.03125,186.13951 C 91.94375,186.25062 98.13125,186.25009 99.78125,186.13833 C 101.43125,186.02658 105.04417,185.79877 107.80996,185.6321 C 114.00173,185.25897 115.28125,184.51818 115.28125,181.30653 C 115.28125,178.83608 115.37671,178.80551 120.92636,179.4989 C 126.10682,180.14615 126.71773,180.01031 128.34841,177.84847 C 130.07531,175.55906 130.22122,175.53845 133.53034,177.11646 C 135.91918,178.25562 137.22074,179.73954 137.89167,182.08885 C 139.22203,186.74721 142.90856,187.30505 144.38444,183.07132 C 145.11314,180.98098 145.90206,180.2385 146.96218,180.6453 C 148.11791,181.0888 148.34361,182.14607 147.88918,184.98788 C 147.3304,188.4823 147.54363,188.90787 150.9469,191.09087 C 157.09663,195.03556 158.67476,195.82912 161.53125,196.41325 C 163.04375,196.72255 164.28125,197.64203 164.28125,198.45655 C 164.28125,199.27107 164.95625,199.9375 165.78125,199.9375 C 166.61458,199.9375 167.28125,199.04861 167.28125,197.9375 C 167.28125,196.78496 166.61458,195.9375 165.70793,195.9375 C 163.26083,195.9375 164.46609,192.48538 167.04147,192.11795 C 168.27335,191.9422 169.28125,192.27044 169.28125,192.84738 C 169.28125,194.02801 180.25785,204.9375 181.44574,204.9375 C 182.59222,204.9375 184.28125,201.3612 184.28125,198.93369 C 184.28125,197.29138 184.80064,196.87217 186.53093,197.11795 C 188.47809,197.39453 188.73672,197.94176 188.45431,201.1875 C 188.17289,204.4217 188.41364,204.9375 190.20463,204.9375 C 191.34677,204.9375 192.33106,204.375 192.39194,203.6875 C 192.63924,200.89483 192.05528,197.38143 191.19524,196.4875 C 188.95443,194.1584 190.26601,192.91143 194.28125,193.55349 C 198.40972,194.21366 200.06432,192.63705 196.28125,191.64775 C 194.10955,191.07984 193.43467,186.57875 195.34426,185.39856 C 196.91243,184.42937 199.96672,187.61484 200.62496,190.90606 C 200.95917,192.57711 202.67507,194.89884 204.73974,196.47364 C 206.93321,198.14668 208.28125,200.02572 208.28125,201.41017 C 208.28125,202.63957 209.40625,204.85935 210.78125,206.343 C 212.15625,207.82665 213.28125,209.59678 213.28125,210.27661 C 213.28125,210.95645 215.53125,213.72885 218.28125,216.4375 C 221.03125,219.14615 223.28125,221.88663 223.28125,222.52746 C 223.28125,223.16829 223.90784,224.21264 224.67368,224.84823 C 225.77561,225.76275 226.47575,225.44149 228.02961,223.30839 C 230.27228,220.2297 233.28125,220.59584 233.28125,223.94742 C 233.28125,225.35356 231.67331,227.01966 228.28125,229.12828 L 223.28125,232.23645 L 223.28125,245.37688 C 223.28125,253.20213 222.72571,260.72586 221.90781,263.9774 C 219.91824,271.88686 219.8455,301.88763 221.80191,307.6501 C 223.94105,313.95078 223.66625,317.41904 220.78125,320.532 C 219.40625,322.01565 218.27436,324.17634 218.26594,325.33352 C 218.24602,328.06954 217.34015,329.34558 214.28125,330.9465 C 212.90625,331.66612 211.19323,333.08348 210.47455,334.0962 C 209.75586,335.10891 208.3631,335.9375 207.37953,335.9375 C 206.39596,335.9375 204.78713,336.82601 203.80435,337.91197 C 202.82157,338.99793 201.20534,340.14421 200.21272,340.45925 C 199.2201,340.77429 198.26695,342.02328 198.09461,343.23478 C 197.89276,344.65365 196.95943,345.55399 195.47183,345.76484 C 193.74608,346.00945 193.24062,346.64128 193.47183,348.26484 C 193.8967,351.2482 198.22047,351.88595 198.95588,349.07373 C 199.28111,347.83004 200.66234,346.79307 202.54424,346.37974 C 204.22703,346.01014 206.7982,344.40009 208.25796,342.80185 L 210.91208,339.89597 L 215.30215,341.44487 C 220.52019,343.2859 221.67717,342.97458 223.45291,339.25162 C 224.43626,337.18995 225.63661,336.35563 227.94211,336.13131 C 230.75109,335.858 231.21227,336.19845 232.23631,339.30132 C 233.7245,343.8106 236.05662,345.88831 237.36798,343.8732 C 237.88185,343.08356 238.18505,341.0875 238.04177,339.4375 C 237.81615,336.8394 237.33968,336.39506 234.48506,336.1207 C 231.94053,335.87614 231.30127,335.42006 231.68175,334.1207 C 231.95282,333.19494 232.47068,330.76603 232.83254,328.72313 C 233.48513,325.03885 235.654,322.10487 236.59089,323.63894 C 236.85913,324.07815 237.59153,326.35 238.21846,328.6875 C 239.45767,333.30786 241.93757,334.41227 242.70935,330.6875 C 243.30279,327.82344 244.41479,310.1397 244.73731,298.4375 C 244.87374,293.4875 245.77246,286.7375 246.73446,283.4375 C 248.79295,276.37617 248.25714,269.9936 245.2891,266.22035 C 243.14494,263.49449 242.56556,256.61797 244.25492,253.94586 C 245.68503,251.68382 247.35032,253.92507 248.39522,259.51813 C 249.42434,265.02677 249.66284,265.38879 251.73812,264.59242 C 254.20916,263.6442 253.88145,252.12684 251.3079,249.47267 C 245.60961,243.59585 243.28125,239.99389 243.28125,237.05548 C 243.28125,234.95061 243.76864,233.9375 244.78125,233.9375 C 247.5359,233.9375 246.34382,229.73266 242.58382,226.18653 C 239.06162,222.86466 238.97589,222.63395 240.77495,221.31845 C 244.93904,218.27359 249.13977,221.38074 247.84322,226.54662 C 247.35311,228.49936 247.72467,229.15559 249.75819,229.92873 C 252.8105,231.08922 253.1373,234.53102 250.28125,235.4375 C 247.54353,236.30642 247.54353,240.93182 250.28125,241.64775 C 251.38125,241.93541 252.28125,242.70727 252.28125,243.363 C 252.28125,245.69605 254.79583,248.061 256.55763,247.38494 C 259.12654,246.39916 258.67665,242.42659 255.78125,240.52946 C 252.61559,238.45524 252.61559,237.14108 255.78125,235.9375 C 257.788,235.17453 258.28125,234.29926 258.28125,231.50121 C 258.28125,229.3682 257.54279,227.32114 256.37844,226.22646 C 255.33189,225.24253 253.97844,222.57658 253.37076,220.30212 C 252.64285,217.57766 251.58615,215.98899 250.27357,215.64574 C 248.0933,215.07559 247.59533,212.47946 249.44676,211.33521 C 250.12445,210.91637 251.51327,211.74484 252.76494,213.31458 C 254.20994,215.12679 255.47048,215.80212 256.59942,215.3689 C 258.8404,214.50895 258.72362,211.23325 256.2901,206.69284 C 255.17225,204.60717 254.01278,199.89865 253.64647,195.95723 C 253.1743,190.87686 252.34278,188.05403 250.63761,185.74281 C 247.94176,182.08878 247.61062,178.73896 249.76826,176.94828 C 252.20263,174.92793 256.07225,176.64617 258.79251,180.95534 C 260.17438,183.14437 262.19966,185.49411 263.29313,186.17699 C 266.11648,187.9402 265.75752,189.57582 262.28125,190.78766 C 258.63808,192.05767 258.39249,194.57543 261.76203,196.1107 C 263.12646,196.73237 264.48172,197.99378 264.77373,198.91382 C 265.06574,199.83386 266.76189,201.22807 268.54296,202.01206 C 271.57218,203.34547 271.78125,203.7603 271.78125,208.4375 C 271.78125,212.82563 271.51236,213.47576 269.58395,213.75014 C 267.58691,214.0343 267.43935,213.7381 267.9648,210.50014 C 268.42205,207.68245 268.21426,206.9375 266.97111,206.9375 C 266.10661,206.9375 265.14091,207.35556 264.82512,207.86652 C 264.13309,208.98624 266.27308,217.88712 267.69273,219.79381 C 269.17373,221.78288 276.88148,220.66169 279.65797,218.05332 C 282.35678,215.51791 284.54553,215.38983 288.2075,217.55301 C 290.77506,219.0697 291.3197,219.03092 297.11179,216.91902 C 304.42224,214.25349 304.91828,212.58202 299.74645,208.04109 C 295.81429,204.58861 294.12016,204.22175 292.29039,206.42649 C 290.78805,208.2367 289.28125,207.49529 289.28125,204.94587 C 289.28125,203.91539 290.20703,202.77844 291.33853,202.41932 C 292.47004,202.06019 293.86638,200.56737 294.44152,199.10193 C 295.45427,196.52145 295.51297,196.50435 296.3045,198.55908 C 296.75401,199.72595 298.20552,200.95266 299.53008,201.2851 C 300.85464,201.61755 302.47329,203.06358 303.12709,204.4985 C 304.20755,206.86985 304.67696,207.04644 308.28125,206.4375 C 311.85154,205.8343 312.36021,206.01669 313.38587,208.26777 C 314.85663,211.49574 316.95922,211.97684 326.41054,211.24801 C 335.45708,210.55039 339.79036,211.84551 340.7133,215.52278 C 342.14693,221.23481 353.79787,215.27082 353.09729,209.18355 L 352.78125,206.4375 L 341.19319,205.85763 C 332.73531,205.4344 328.96339,204.82827 327.22936,203.61371 C 325.92269,202.69848 322.66957,201.65993 320.00022,201.30583 C 316.43666,200.83311 314.73551,200.03422 313.59904,198.29975 C 312.37305,196.42865 311.1655,195.9375 307.79124,195.9375 C 300.98415,195.9375 297.28125,194.89863 297.28125,192.98887 C 297.28125,191.85735 296.02924,190.98095 293.53125,190.36387 C 291.29545,189.81155 289.78125,188.83735 289.78125,187.9512 C 289.78125,185.43438 293.09904,185.66439 295.80334,188.36868 C 297.99735,190.56269 299.25758,190.9375 304.44055,190.9375 C 308.52081,190.9375 311.70022,191.5713 314.1451,192.87207 C 316.14498,193.93608 320.65859,195.27502 324.17534,195.84748 C 327.69209,196.41994 331.32752,197.57439 332.25408,198.41291 C 334.25967,200.22795 336.30923,200.3375 339.66395,198.80899 C 341.64903,197.90453 343.77632,198.12181 350.3793,199.90349 C 354.91051,201.12614 359.83672,203.02763 361.32644,204.12903 C 364.58701,206.53967 367.78125,206.19069 367.78125,203.4238 C 367.78125,202.03913 366.78088,201.1432 364.47847,200.46585 C 361.5672,199.60938 361.25736,199.1945 361.86464,196.96585 C 363.01887,192.72998 362.29353,187.57948 360.23404,185.38725 C 359.16001,184.24399 358.28125,182.82969 358.28125,182.24437 C 358.28125,181.65904 356.93125,180.62095 355.28125,179.9375 C 349.93525,177.72312 352.60023,175.35845 358.5808,177.00977 C 361.60041,177.84352 362.1089,178.45823 362.66722,181.94976 C 363.01794,184.14301 363.79759,185.9375 364.39978,185.9375 C 365.00197,185.9375 367.60709,188.1875 370.18892,190.9375 C 373.87454,194.86318 375.55261,195.9375 377.9988,195.9375 C 380.16925,195.9375 381.67064,196.69747 382.94784,198.44258 C 384.29627,200.28501 385.83935,201.01245 388.78125,201.19258 C 392.44656,201.41701 392.78125,201.22832 392.78125,198.9375 C 392.78125,196.7397 392.29773,196.39964 388.78125,196.12431 C 384.69587,195.80443 383.38264,194.88597 376.46473,187.51025 C 368.61003,179.13573 365.24302,175.9375 364.28125,175.9375 C 363.73125,175.9375 363.28125,174.8125 363.28125,173.4375 C 363.28125,171.54885 363.8051,170.9375 365.42344,170.9375 C 368.3439,170.9375 377.89861,179.27682 378.71782,182.54078 C 379.30871,184.8951 379.74601,185.12376 382.73111,184.63935 C 385.41068,184.20452 386.54007,184.5841 388.37356,186.53576 C 391.51809,189.88296 399.14954,194.64295 402.78125,195.52233 C 405.86725,196.26956 407.99359,197.67945 415.91841,204.23303 C 418.44273,206.32057 421.01955,207.866 421.64467,207.66732 C 422.26979,207.46864 423.21181,205.87315 423.73805,204.12179 C 424.96284,200.04559 426.03222,200.09725 427.79569,204.31782 C 429.36105,208.06425 433.65751,212.06068 439.16478,214.893 C 441.15384,215.91594 445.02144,218.81944 447.75945,221.3452 C 450.49747,223.87097 453.08406,225.9375 453.50743,225.9375 C 453.9308,225.9375 456.19061,227.76631 458.52923,230.00153 C 460.86784,232.23675 464.13125,234.77272 465.78125,235.63701 C 467.43125,236.50131 469.14111,237.82249 469.58094,238.57298 C 470.02077,239.32347 470.99874,239.9375 471.75421,239.9375 C 472.50969,239.9375 474.39983,240.99919 475.95452,242.29681 C 477.50922,243.59442 480.19994,245.38333 481.9339,246.27214 C 483.66785,247.16096 486.59285,249.37317 488.4339,251.18817 C 494.16304,256.83625 502.68941,266.30418 504.78125,269.34075 C 510.75491,278.01227 514.28125,284.66021 514.28125,287.25039 C 514.28125,288.00782 515.12726,289.39315 516.16127,290.32892 C 517.41275,291.4615 518.19206,293.84839 518.49226,297.46841 C 518.77866,300.92206 519.6435,303.6803 520.86224,305.02699 C 522.54425,306.8856 522.78125,308.7312 522.78125,319.97125 C 522.78125,333.89806 523.11391,332.92393 516.03125,339.73739 C 512.06236,343.55543 512.44055,345.54745 517.28125,346.32151 C 522.04781,347.08371 522.58602,349.36311 518.83213,352.8897 C 515.70181,355.83049 513.71051,355.03917 512.86221,350.51734 C 512.49284,348.54843 511.87351,346.93978 511.48594,346.94258 C 508.94265,346.9609 499.28125,359.65787 499.28125,362.98191 C 499.28125,365.52007 501.45232,365.49448 503.04918,362.9375 z M 489.28125,218.4375 C 489.28125,217.43411 489.9371,216.91716 490.96014,217.11418 C 493.19006,217.54362 493.23809,219.32213 491.03125,219.74713 C 489.93665,219.95793 489.28125,219.46746 489.28125,218.4375 z M 484.28125,213.4375 C 484.28125,212.6125 484.95625,211.9375 485.78125,211.9375 C 486.60625,211.9375 487.28125,212.6125 487.28125,213.4375 C 487.28125,214.2625 486.60625,214.9375 485.78125,214.9375 C 484.95625,214.9375 484.28125,214.2625 484.28125,213.4375 z M 278.88499,204.34726 C 278.12265,202.36061 278.94904,200.9375 280.86502,200.9375 C 281.67117,200.9375 282.75848,199.8125 283.28125,198.4375 C 284.85675,194.29363 289.28125,195.91595 289.28125,200.6375 C 289.28125,202.22084 288.69622,202.9375 287.40369,202.9375 C 286.37104,202.9375 284.96594,203.6125 284.28125,204.4375 C 282.64805,206.40539 279.65557,206.35535 278.88499,204.34726 z M 274.1008,197.72849 C 273.902,196.35423 272.86456,195.30463 271.35539,194.95091 C 268.2998,194.23474 267.3906,191.9375 270.16273,191.9375 C 271.28922,191.9375 272.69255,192.8375 273.28125,193.9375 C 273.86995,195.0375 275.01078,195.9375 275.81643,195.9375 C 276.62208,195.9375 277.28125,196.8375 277.28125,197.9375 C 277.28125,200.66599 274.49929,200.48317 274.1008,197.72849 z M 419.82396,199.0066 C 419.50752,198.4946 419.70597,197.79304 420.26494,197.44758 C 421.45831,196.71003 423.28125,197.64615 423.28125,198.99652 C 423.28125,200.21332 420.57463,200.22121 419.82396,199.0066 z M 179.40323,194.58448 C 178.18767,193.11982 178.87764,191.9375 180.94792,191.9375 C 182.43762,191.9375 182.7733,194.51536 181.39456,195.36747 C 180.90688,195.66888 180.01078,195.31653 179.40323,194.58448 z M 209.01682,195.33973 C 208.04367,194.36659 209.37981,191.9375 210.88824,191.9375 C 211.65439,191.9375 212.28125,192.8375 212.28125,193.9375 C 212.28125,195.82008 210.33372,196.65664 209.01682,195.33973 z M 351.36136,192.41319 C 348.90718,189.87575 348.24722,188.57153 349.02423,187.79452 C 350.30451,186.51424 352.28125,187.48784 352.28125,189.39869 C 352.28125,190.13743 353.67184,191.22661 355.37144,191.8191 C 357.13403,192.43354 358.27988,193.44221 358.03858,194.16692 C 357.23411,196.58298 354.76783,195.93522 351.36136,192.41319 z M 167.47981,185.70326 C 164.97099,179.6503 164.5363,176.37466 166.60224,179.09032 C 167.2938,179.99938 168.96699,180.89938 170.32044,181.09032 C 172.51759,181.4003 172.78125,181.91818 172.78125,185.9238 C 172.78125,192.56501 170.28073,192.46099 167.47981,185.70326 z M 158.62184,188.1319 C 158.36214,187.13883 156.82927,185.82791 155.21546,185.21877 C 153.35022,184.51472 152.28125,183.40009 152.28125,182.15922 C 152.28125,181.08562 151.49375,179.12886 150.53125,177.81088 C 149.56875,176.49289 148.28144,174.5197 147.67055,173.42602 C 146.90229,172.05057 145.51429,171.4375 143.16853,171.4375 C 140.61999,171.4375 138.97497,170.59814 136.54905,168.05993 C 134.77357,166.20227 133.56354,164.28977 133.86009,163.80993 C 134.79123,162.30332 136.12045,162.85551 136.81267,165.0365 C 137.49724,167.19338 138.11693,167.22008 145.40056,165.4065 C 147.6697,164.8415 148.40497,165.31981 150.90056,168.98442 C 152.48494,171.31098 154.79375,174.2163 156.03125,175.44068 C 157.63063,177.02311 158.28125,178.84253 158.28125,181.73262 C 158.28125,185.18171 158.62098,185.84687 160.52103,186.11795 C 161.75292,186.2937 162.91091,187.225 163.09436,188.1875 C 163.55737,190.61683 159.25768,190.56338 158.62184,188.1319 z M 178.571,182.9375 C 178.27771,181.81595 177.20698,180.9375 176.13323,180.9375 C 175.08012,180.9375 173.92014,180.16004 173.5555,179.2098 C 172.53992,176.56324 166.86507,171.25374 164.1788,170.43678 C 162.86015,170.03575 160.88125,168.8988 159.78125,167.91023 C 158.68125,166.92166 156.65625,165.96088 155.28125,165.77516 C 153.58139,165.54557 152.67898,164.71738 152.4617,163.1875 C 152.17345,161.1579 151.58571,160.936 146.4617,160.92219 C 139.99075,160.90474 137.93315,160.00821 138.85437,157.60755 C 139.29032,156.47149 140.66006,155.9363 143.13824,155.93376 C 145.14189,155.93171 148.25463,155.03171 150.05542,153.93376 C 151.85621,152.83582 154.21871,151.9375 155.30542,151.9375 C 158.16653,151.9375 157.74045,154.81241 154.70849,155.96516 C 153.03941,156.59975 152.2553,157.55699 152.47615,158.69041 C 152.74067,160.04788 153.88932,160.45755 157.62688,160.5274 C 161.64979,160.60258 162.63185,161.00776 163.62642,163.00266 C 164.47533,164.70541 166.00894,165.59173 168.98557,166.09988 C 171.27903,166.4914 174.08379,167.74004 175.21837,168.87462 C 176.81955,170.4758 178.56818,170.94056 183.03125,170.95115 C 190.1979,170.96817 193.28125,171.76063 193.28125,173.58552 C 193.28125,175.39466 191.78948,175.93977 185.70384,176.35442 C 182.99642,176.53889 180.44375,176.74555 180.03125,176.81366 C 178.58028,177.05324 179.30458,179.1358 181.44036,180.86526 C 182.65532,181.84907 183.28544,183.1217 182.88134,183.77555 C 181.73725,185.62673 179.14231,185.1222 178.571,182.9375 z M 98.859418,180.06272 C 94.19309,179.31881 93.065133,177.28083 96.800803,176.34324 C 100.11844,175.51056 107.55093,177.62299 107.01652,179.2467 C 106.54829,180.66934 104.16196,180.90806 98.859418,180.06272 z M 198.75418,179.8937 C 197.9562,178.60254 200.17669,175.75485 201.39456,176.50753 C 201.88224,176.80893 202.28125,177.92898 202.28125,178.99652 C 202.28125,181.04603 199.84877,181.66478 198.75418,179.8937 z M 343.45486,179.11111 C 342.45034,178.10659 340.87534,176.99572 339.95486,176.64249 C 339.03437,176.28927 338.28125,175.3377 338.28125,174.5279 C 338.28125,172.02929 340.47191,171.545 342.16846,173.66856 C 343.0555,174.77884 345.01875,175.97714 346.53125,176.33143 C 349.53521,177.03509 350.21579,179.3649 347.69946,180.33051 C 345.51887,181.16728 345.50788,181.16413 343.45486,179.11111 z M 84.28125,177.9375 C 84.28125,177.3875 84.73125,176.9375 85.28125,176.9375 C 85.83125,176.9375 86.28125,177.3875 86.28125,177.9375 C 86.28125,178.4875 85.83125,178.9375 85.28125,178.9375 C 84.73125,178.9375 84.28125,178.4875 84.28125,177.9375 z M 359.47162,168.1875 C 359.89662,165.98066 361.67513,166.02869 362.10457,168.25861 C 362.30159,169.28165 361.78464,169.9375 360.78125,169.9375 C 359.75129,169.9375 359.26082,169.2821 359.47162,168.1875 z M 484.28125,168.4375 C 484.28125,167.6125 484.95625,166.9375 485.78125,166.9375 C 486.60625,166.9375 487.28125,167.6125 487.28125,168.4375 C 487.28125,169.2625 486.60625,169.9375 485.78125,169.9375 C 484.95625,169.9375 484.28125,169.2625 484.28125,168.4375 z M 218.55208,168.33333 C 218.88438,168.00104 219.74687,167.96552 220.46875,168.25439 C 221.26648,168.57361 221.02953,168.81057 219.86458,168.85855 C 218.81042,168.90197 218.21979,168.66563 218.55208,168.33333 z M 204.24602,165.39506 C 202.42538,163.20131 204.80676,160.9375 208.93508,160.9375 C 212.35383,160.9375 214.5027,163.2051 212.66403,164.87248 C 210.81597,166.54839 205.47821,166.87975 204.24602,165.39506 z M 176.53125,165.29601 C 174.34139,164.37596 175.18289,162.03973 178.28125,160.4375 C 179.93125,159.58425 181.28125,158.67873 181.28125,158.42524 C 181.28125,158.17174 179.81875,157.35221 178.03125,156.60405 C 173.57779,154.74005 171.24082,148.74464 173.84574,145.86624 C 176.3824,143.06327 179.28125,143.34917 179.28125,146.40232 C 179.28125,147.81488 180.10616,149.30861 181.21353,149.90125 C 182.27628,150.47002 183.40584,151.75468 183.72366,152.75606 C 184.25599,154.43328 190.06646,157.9375 192.31518,157.9375 C 192.84652,157.9375 193.28125,156.22213 193.28125,154.12556 C 193.28125,150.2918 191.29344,147.97348 184.83479,144.2747 C 182.86016,143.14386 182.87759,143.07854 185.46906,141.89779 C 188.9766,140.29965 193.28125,141.38899 193.28125,143.87476 C 193.28125,146.81571 194.35909,148.9375 195.85306,148.9375 C 198.28183,148.9375 199.48499,152.81392 198.75113,158.27469 C 198.36953,161.11424 197.6062,163.99565 197.05486,164.67783 C 195.89255,166.11595 191.58167,165.36128 189.20251,163.30319 C 187.15815,161.53472 184.59336,161.55967 183.58094,163.35788 C 182.68888,164.94232 178.45796,166.10551 176.53125,165.29601 z M 164.34555,160.02463 C 161.71562,158.31244 164.98575,155.9375 169.97325,155.9375 C 174.01307,155.9375 174.39109,156.14356 174.1008,158.1875 C 173.83792,160.03844 173.07182,160.48377 169.78125,160.69841 C 167.58125,160.84191 165.13519,160.53871 164.34555,160.02463 z M 483.9751,159.29802 C 483.04186,158.36478 484.16962,156.9375 485.84027,156.9375 C 486.63281,156.9375 487.28125,157.6125 487.28125,158.4375 C 487.28125,159.94373 485.17026,160.49318 483.9751,159.29802 z M 479.28125,153.35417 C 479.28125,152.48333 479.81563,151.94896 480.46875,152.16667 C 482.32297,152.78474 482.63051,154.9375 480.86458,154.9375 C 479.99375,154.9375 479.28125,154.225 479.28125,153.35417 z M 139.9751,149.29802 C 139.62339,148.94631 139.57948,148.26397 139.87753,147.78171 C 140.51672,146.74749 142.28125,147.63926 142.28125,148.99652 C 142.28125,150.07161 140.92589,150.24881 139.9751,149.29802 z M 160.28125,147.37848 C 160.28125,146.52102 160.73125,146.09758 161.28125,146.4375 C 161.83125,146.77742 162.28125,147.47898 162.28125,147.99652 C 162.28125,148.51406 161.83125,148.9375 161.28125,148.9375 C 160.73125,148.9375 160.28125,148.23594 160.28125,147.37848 z M 198.85149,145.25996 C 198.49744,144.33731 198.8468,142.94338 199.62784,142.16234 C 200.78475,141.00543 201.47541,140.97104 203.35464,141.97678 L 205.66135,143.21129 L 203.36052,145.0744 C 200.52288,147.37218 199.67541,147.40705 198.85149,145.25996 z M 128.74013,143.87097 C 128.3776,143.28438 128.33163,142.55378 128.63799,142.24743 C 129.46063,141.42479 132.28125,142.70895 132.28125,143.90612 C 132.28125,145.26337 129.58414,145.2366 128.74013,143.87097 z M 153.77688,143.93044 C 152.99463,142.66473 155.77853,141.53061 157.78125,142.29913 C 158.60625,142.61571 159.28125,143.33885 159.28125,143.90612 C 159.28125,145.23486 154.59586,145.25557 153.77688,143.93044 z M 121.81339,140.20622 C 117.91207,139.21639 113.50206,134.92803 112.85868,131.49854 C 112.51198,129.6505 111.56523,127.58815 110.75479,126.91554 C 109.92278,126.22504 109.28125,124.01329 109.28125,121.83538 C 109.28125,118.33373 108.90767,117.78756 105.22879,115.91074 L 101.17633,113.84333 L 103.22879,110.52238 C 104.35764,108.69586 105.28125,106.47742 105.28125,105.59252 C 105.28125,104.70762 106.4085,103.245 107.78626,102.34226 C 109.80493,101.01957 110.5815,100.9418 111.78626,101.94165 C 112.6085,102.62406 113.28125,103.94885 113.28125,104.88563 C 113.28125,110.19594 124.33311,113.23562 128.01328,108.9375 C 130.16248,106.42741 131.79273,106.40195 133.50858,108.85167 C 134.24599,109.90447 136.5215,111.07955 138.56528,111.46296 C 140.73468,111.86994 142.28125,112.73806 142.28125,113.54879 C 142.28125,114.31258 141.80831,114.9375 141.23027,114.9375 C 139.23938,114.9375 133.43501,122.30435 132.81284,125.62082 C 132.32856,128.20221 131.30714,129.3938 128.23536,130.96091 C 126.0606,132.07039 124.28125,133.20983 124.28125,133.49301 C 124.28125,133.77618 124.99504,135.09724 125.86745,136.42871 C 128.306,140.15042 126.86941,141.48901 121.81339,140.20622 z M 121.28125,127.9375 C 121.28125,127.3875 120.83982,126.9375 120.3003,126.9375 C 119.76078,126.9375 119.04517,125.84506 118.71005,124.50986 C 117.59494,120.0669 113.28125,120.0563 113.28125,124.49652 C 113.28125,126.41783 113.80092,126.9375 115.72223,126.9375 C 117.06477,126.9375 118.44133,127.3875 118.78125,127.9375 C 119.12117,128.4875 119.82273,128.9375 120.34027,128.9375 C 120.85781,128.9375 121.28125,128.4875 121.28125,127.9375 z M 127.96186,118.47794 C 127.38695,116.75088 124.31795,116.67829 123.66635,118.37633 C 123.33148,119.24898 123.64667,120.67287 124.36676,121.54053 C 125.55172,122.96832 125.80098,122.94721 126.99212,121.31824 C 127.71597,120.32831 128.15235,119.05018 127.96186,118.47794 z M 83.982486,137.3054 C 82.683354,136.00627 83.221696,130.9375 84.658805,130.9375 C 86.612772,130.9375 88.50839,133.51954 88.102342,135.62798 C 87.744262,137.48734 85.200239,138.52316 83.982486,137.3054 z M 193.42047,132.86652 C 192.12203,131.80556 190.47898,130.9375 189.76924,130.9375 C 189.0595,130.9375 187.54953,129.3625 186.41375,127.4375 C 185.05381,125.13258 183.60136,123.9375 182.15999,123.9375 C 180.15102,123.9375 180.09871,123.79378 181.52302,122.1875 C 182.37649,121.225 183.23989,119.5375 183.44171,118.4375 C 183.93378,115.7554 186.5435,115.89568 187.7607,118.66966 C 188.29939,119.89735 189.98689,121.33644 191.5107,121.86764 C 193.86338,122.68779 194.28125,123.39027 194.28125,126.52524 C 194.28125,128.88201 194.91408,130.68456 196.03125,131.50994 C 197.19686,132.37111 197.44731,133.13557 196.78125,133.7992 C 196.1165,134.46151 194.9898,134.14883 193.42047,132.86652 z M 202.81387,129.99029 C 201.93463,128.56765 203.05586,126.9375 204.91359,126.9375 C 205.78974,126.9375 206.29164,127.64006 206.10457,128.60463 C 205.71505,130.6131 203.71841,131.45385 202.81387,129.99029 z M 162.99116,119.31408 C 162.04326,118.36618 164.1909,115.9375 165.97702,115.9375 C 167.90103,115.9375 167.22224,119.32518 165.221,119.71059 C 164.3755,119.87342 163.37207,119.69499 162.99116,119.31408 z M 173.84349,115.35688 C 171.86231,113.3757 172.67734,111.9375 175.78125,111.9375 C 178.72825,111.9375 179.84856,113.549 178.2449,115.4813 C 176.70137,117.34114 175.80233,117.31573 173.84349,115.35688 z M 208.74013,108.87097 C 207.81979,107.38182 208.88686,106.57218 210.8015,107.3069 C 211.68508,107.64596 212.12793,108.37655 211.78562,108.93044 C 210.97504,110.24197 209.57051,110.21455 208.74013,108.87097 z M 221.81226,108.98767 C 220.8597,107.4464 225.26775,105.524 226.63025,106.8865 C 227.47596,107.73221 227.38504,108.2607 226.27289,108.96383 C 224.35088,110.17897 222.55445,110.18857 221.81226,108.98767 z M 213.94792,105.27083 C 212.6305,103.95342 213.334,102.07069 216.46525,98.533887 C 219.13657,95.516577 222.28125,93.798157 222.28125,95.355713 C 222.28125,95.585729 222.5164,96.386712 222.8038,97.135674 C 223.09121,97.884636 221.79301,100.17144 219.91893,102.21746 C 216.5477,105.89799 215.24251,106.56542 213.94792,105.27083 z M 224.28125,88.4375 C 224.28125,87.6125 224.95625,86.9375 225.78125,86.9375 C 226.60625,86.9375 227.28125,87.6125 227.28125,88.4375 C 227.28125,89.2625 226.60625,89.9375 225.78125,89.9375 C 224.95625,89.9375 224.28125,89.2625 224.28125,88.4375 z M 122.32731,83.987128 C 121.14074,83.236521 121.50854,82.413754 124.32731,79.513089 C 128.39401,75.328238 132.61065,74.603645 132.1008,78.177284 C 131.91695,79.465944 130.9364,80.578294 129.79173,80.796735 C 128.6975,81.005552 127.20948,82.022649 126.48503,83.056951 C 125.00438,85.17087 124.4091,85.304048 122.32731,83.987128 z M 134.87781,84.093731 C 134.53176,83.533812 134.73591,82.774541 135.33147,82.406463 C 136.86895,81.456245 137.86094,82.757813 136.57745,84.041299 C 135.85927,84.759479 135.29993,84.776734 134.87781,84.093731 z M 219.94792,84.270833 C 218.79728,83.1202 219.21968,81.9375 220.78125,81.9375 C 221.60625,81.9375 222.28125,82.6125 222.28125,83.4375 C 222.28125,84.999074 221.09855,85.421467 219.94792,84.270833 z M 138.63264,79.410815 C 138.28295,78.499554 139.10183,76.906357 140.66402,75.458564 C 142.1035,74.124502 143.28125,72.530213 143.28125,71.915698 C 143.28125,70.102615 147.72996,71.275572 148.0938,73.184586 C 148.30689,74.302645 147.53128,75.272141 145.93958,75.877302 C 144.57163,76.397399 143.15856,77.74871 142.79943,78.880216 C 142.03533,81.287675 139.47783,81.613347 138.63264,79.410815 z M 214.93191,75.469525 C 214.62209,74.662139 214.79894,73.735581 215.32492,73.410508 C 215.8509,73.085435 216.28125,73.746024 216.28125,74.878483 C 216.28125,77.293048 215.72514,77.536638 214.93191,75.469525 z M 257.53125,70.231767 C 254.39511,69.62772 254.84393,67.95339 259.1159,64.320294 C 263.84981,60.294333 267.07564,59.238122 267.91971,61.437727 C 268.352,62.564254 267.19181,64.303483 264.20481,67.006678 C 261.81588,69.16863 259.84329,70.876218 259.82127,70.801318 C 259.79926,70.726418 258.76875,70.47012 257.53125,70.231767 z M 218.28125,68.508929 C 218.28125,67.723214 219.02054,66.341071 219.92411,65.4375 C 221.38144,63.98017 221.73567,63.963347 223.06085,65.28853 C 223.88249,66.110168 224.28233,67.492311 223.94938,68.359959 C 223.18433,70.353645 218.28125,70.482508 218.28125,68.508929 z M 150.28125,67.9375 C 150.28125,67.3875 150.73125,66.9375 151.28125,66.9375 C 151.83125,66.9375 152.28125,67.3875 152.28125,67.9375 C 152.28125,68.4875 151.83125,68.9375 151.28125,68.9375 C 150.73125,68.9375 150.28125,68.4875 150.28125,67.9375 z M 244.46483,66.264619 C 244.92571,62.371487 247.28125,62.028201 247.28125,65.854167 C 247.28125,67.98635 246.79804,68.9375 245.71483,68.9375 C 244.6047,68.9375 244.24058,68.158889 244.46483,66.264619 z M 190.28125,64.9375 C 190.28125,63.806017 190.94792,62.9375 191.81643,62.9375 C 193.04174,62.9375 193.13556,63.341201 192.28125,64.9375 C 191.69255,66.0375 191.00172,66.9375 190.74607,66.9375 C 190.49042,66.9375 190.28125,66.0375 190.28125,64.9375 z M 224.28125,59.4375 C 224.28125,58.6125 224.95625,57.9375 225.78125,57.9375 C 226.60625,57.9375 227.28125,58.6125 227.28125,59.4375 C 227.28125,60.2625 226.60625,60.9375 225.78125,60.9375 C 224.95625,60.9375 224.28125,60.2625 224.28125,59.4375 z M 237.5032,58.771647 C 238.01975,57.222 241.1622,56.961317 241.53125,58.4375 C 241.66875,58.9875 240.71863,59.587866 239.41987,59.771647 C 237.80095,60.000731 237.19831,59.686312 237.5032,58.771647 z M 271.30928,58.997023 C 270.03963,58.175939 270.06597,57.957342 271.50086,57.406721 C 273.66602,56.575872 276.78125,57.192071 276.78125,58.451195 C 276.78125,59.800017 273.11625,60.1656 271.30928,58.997023 z M 213.49645,356.95115 C 214.43982,356.94364 216.82581,355.52025 218.79867,353.78806 C 221.69284,351.24694 222.3273,350.03975 222.08346,347.53806 C 221.80345,344.66531 221.52409,344.45492 218.28125,344.67458 C 211.02817,345.16588 208.50644,345.96836 207.98821,347.9501 C 207.70583,349.02993 206.34995,350.34108 204.97516,350.86378 C 201.56005,352.1622 201.01117,353.39399 203.05483,355.17337 C 205.43361,357.24452 207.42623,357.90283 209.78125,357.39558 C 210.88125,357.15866 212.55309,356.95866 213.49645,356.95115 z M 364.7069,355.53301 C 369.01767,353.73186 383.57569,339.37462 388.1254,332.4375 C 388.48612,331.8875 390.22553,330.425 391.99076,329.1875 C 397.01033,325.66857 399.06402,326.39073 395.36223,330.37305 C 394.30677,331.5085 393.13169,334.125 392.75094,336.1875 C 392.12513,339.57746 392.26613,339.9375 394.21952,339.9375 C 397.0776,339.9375 402.79693,334.21295 403.71086,330.4375 C 404.11028,328.7875 405.03515,326.7625 405.76613,325.9375 C 406.49712,325.1125 407.59029,322.57742 408.1954,320.30399 C 408.80051,318.03056 409.93845,315.63696 410.72415,314.98489 C 411.50985,314.33282 412.46487,312.3679 412.84643,310.6184 C 413.22799,308.86891 414.60691,306.16547 415.91071,304.61077 C 417.21451,303.05608 418.28125,301.32104 418.28125,300.75513 C 418.28125,300.18923 419.40625,298.38923 420.78125,296.75513 C 422.15625,295.12104 423.28125,292.85768 423.28125,291.72545 C 423.28125,290.59321 424.40625,288.62423 425.78125,287.34992 C 427.15625,286.07561 428.28125,283.93899 428.28125,282.60188 C 428.28125,281.04054 428.97225,279.99006 430.21267,279.66569 C 431.44023,279.34467 432.53612,277.70471 433.21984,275.16554 C 433.81151,272.96826 434.96737,270.61296 435.78843,269.93154 C 436.65359,269.21352 437.28125,267.02293 437.28125,264.72144 C 437.28125,261.59126 437.7048,260.6395 439.28125,260.22725 C 441.6643,259.60407 441.82519,258.33858 439.78125,256.29464 C 438.95625,255.46964 438.28125,253.95808 438.28125,252.93562 C 438.28125,251.77204 437.44337,250.95706 436.04147,250.75705 C 432.78332,250.29221 432.56567,247.16006 435.70849,245.96516 C 439.34994,244.58069 439.39432,238.71292 435.78125,236.34554 C 432.64343,234.28956 432.30385,229.9375 435.28125,229.9375 C 436.39236,229.9375 437.28125,229.27083 437.28125,228.4375 C 437.28125,227.60417 436.39236,226.9375 435.28125,226.9375 C 434.17014,226.9375 433.28125,227.60417 433.28125,228.4375 C 433.28125,229.37083 432.33681,229.9375 430.78125,229.9375 C 427.85247,229.9375 427.57931,228.37554 430.03125,225.64899 C 431.72312,223.76764 431.60054,223.54081 426.3408,218.82025 C 420.30327,213.40162 418.53914,212.85377 417.86305,216.1875 C 417.61208,217.425 417.14218,219.68599 416.81882,221.21191 C 416.36468,223.35498 416.80552,224.51887 418.75607,226.32658 C 421.7978,229.14556 421.91803,229.9375 419.3043,229.9375 C 418.21698,229.9375 416.59023,228.8125 415.68929,227.4375 C 414.78836,226.0625 413.48308,224.9375 412.78868,224.9375 C 412.09428,224.9375 410.91472,224.20078 410.16743,223.30035 C 408.99379,221.88621 409.11333,221.46095 411.04498,220.17838 C 413.41212,218.60666 414.08242,215.9375 412.10999,215.9375 C 411.4658,215.9375 410.14269,216.6579 409.16976,217.5384 C 407.53855,219.01462 406.97263,218.93674 401.90295,216.5384 C 395.09116,213.3159 394.65385,213.31681 393.84109,216.55509 C 393.11226,219.459 395.43545,222.89949 398.18624,222.98995 C 399.3893,223.02951 399.22835,223.42808 397.53125,224.61192 C 396.29375,225.47516 395.29954,226.68906 395.32189,227.30947 C 395.39063,229.21731 400.59777,234.58034 404.13233,236.38368 L 407.48341,238.0934 L 405.38233,240.3299 C 402.62268,243.26742 402.7301,244.77746 405.78125,245.9375 C 408.8535,247.10557 408.99351,249.54016 406.12214,251.86526 C 403.88696,253.6752 404.28591,255.9375 406.84027,255.9375 C 408.85676,255.9375 408.635,258.67233 406.38673,261.53053 C 404.90975,263.4082 404.66329,264.69753 405.26843,267.38064 C 406.12939,271.19805 403.35682,283.03357 400.94568,285.83354 C 400.18601,286.71572 399.06678,288.92112 398.45851,290.73444 C 397.85024,292.54776 396.43652,295.19595 395.31691,296.6193 C 394.19729,298.04266 393.28125,299.79817 393.28125,300.52044 C 393.28125,301.24272 391.03125,304.53732 388.28125,307.84178 C 385.53125,311.14624 383.28125,314.14214 383.28125,314.49934 C 383.28125,314.85654 382.15625,316.48577 380.78125,318.11987 C 379.40625,319.75396 378.28125,321.74145 378.28125,322.53651 C 378.28125,323.33156 375.81138,326.37427 372.79264,329.29808 C 367.18552,334.72889 361.54501,337.34225 357.63661,336.32018 C 356.22639,335.9514 355.05692,336.41155 354.14822,337.69276 C 353.39639,338.7528 351.76875,340.15735 350.53125,340.81398 C 349.12939,341.55783 348.28125,342.93699 348.28125,344.47268 C 348.28125,347.81878 350.51454,347.61957 354.28125,343.9375 C 357.57973,340.71313 361.06089,340.13955 365.96615,342.0122 C 368.68132,343.04876 368.71234,343.1375 366.84012,344.5122 C 365.7725,345.29612 364.17949,345.9375 363.3001,345.9375 C 362.4207,345.9375 359.7787,347.67734 357.42897,349.80382 C 353.47605,353.38115 353.27884,353.79224 354.79042,355.30382 C 356.79521,357.3086 360.26535,357.38881 364.7069,355.53301 z M 424.78125,278.9375 C 424.44133,278.3875 424.86477,277.9375 425.72223,277.9375 C 426.57969,277.9375 427.28125,278.3875 427.28125,278.9375 C 427.28125,279.4875 426.85781,279.9375 426.34027,279.9375 C 425.82273,279.9375 425.12117,279.4875 424.78125,278.9375 z M 419.68125,274.5375 C 419.31519,273.58356 419.51068,272.30807 420.11568,271.70307 C 420.91568,270.90307 421.3972,271.07609 421.88125,272.3375 C 422.24731,273.29144 422.05182,274.56693 421.44682,275.17193 C 420.64682,275.97193 420.1653,275.79891 419.68125,274.5375 z M 424.28125,267.9375 C 424.28125,267.3875 424.73125,266.9375 425.28125,266.9375 C 425.83125,266.9375 426.28125,267.3875 426.28125,267.9375 C 426.28125,268.4875 425.83125,268.9375 425.28125,268.9375 C 424.73125,268.9375 424.28125,268.4875 424.28125,267.9375 z M 425.28125,257.99652 C 425.28125,257.47898 425.73125,256.77742 426.28125,256.4375 C 428.04085,255.35001 427.35156,252.9375 425.28125,252.9375 C 424.18125,252.9375 423.28125,253.3875 423.28125,253.9375 C 423.28125,254.4875 422.60625,254.9375 421.78125,254.9375 C 419.84219,254.9375 419.86456,253.52821 421.82951,251.89745 C 424.05407,250.05123 423.2575,246.50514 420.53125,246.11795 C 419.04425,245.90676 418.28125,245.11202 418.28125,243.77433 C 418.28125,242.59126 417.45025,241.53295 416.28125,241.22725 C 414.20498,240.68429 413.53813,237.5148 415.2744,236.44173 C 416.55042,235.65311 423.28125,242.15134 423.28125,244.17189 C 423.28125,245.01468 424.17583,245.93818 425.26921,246.2241 C 426.36259,246.51003 427.67812,247.85114 428.19261,249.20435 C 428.7071,250.55756 429.83751,251.93698 430.70465,252.26973 C 433.03062,253.16229 432.62251,255.48388 429.81643,257.32249 C 427.04613,259.13766 425.28125,259.39996 425.28125,257.99652 z M 408.28125,244.70705 C 408.28125,242.94657 410.29032,240.9375 412.0508,240.9375 C 414.45127,240.9375 413.04424,245.40015 410.53125,245.75705 C 409.13762,245.95498 408.28125,245.55534 408.28125,244.70705 z M 428.74013,238.87097 C 427.81979,237.38182 428.88686,236.57218 430.8015,237.3069 C 431.68508,237.64596 432.12793,238.37655 431.78562,238.93044 C 430.97504,240.24198 429.57051,240.21455 428.74013,238.87097 z M 423.48125,234.7375 C 421.48552,232.74177 422.05845,230.76676 424.53125,231.11795 C 425.97721,231.32331 426.89544,232.24154 427.1008,233.6875 C 427.45199,236.1603 425.47698,236.73323 423.48125,234.7375 z M 404.28125,228.4375 C 404.28125,227.52083 404.84375,226.95833 405.53125,227.1875 C 406.94692,227.65939 406.7913,229.26748 405.28125,229.77083 C 404.73125,229.95417 404.28125,229.35417 404.28125,228.4375 z M 122.96091,313.32739 C 123.38487,297.06926 123.98863,289.28281 124.9599,287.54723 C 125.9425,285.79143 126.08365,285.81729 127.6392,288.03815 C 128.54233,289.32755 129.28125,291.16655 129.28125,292.12482 C 129.28125,294.0952 132.1395,295.9375 135.19646,295.9375 C 137.63106,295.9375 138.78635,292.43747 137.98391,287.49265 C 137.2815,283.16418 138.736,276.80936 140.76944,275.32248 C 141.64841,274.67976 142.73321,271.84083 143.18011,269.01374 C 143.65019,266.04007 144.89644,262.91156 146.13696,261.59109 C 147.31632,260.33572 148.28882,258.8876 148.29808,258.37305 C 148.32155,257.06824 155.39544,250.38591 157.57901,249.60585 C 159.0345,249.08589 159.2513,248.29476 158.71772,245.45056 C 158.19052,242.64034 158.37399,241.9375 159.63478,241.9375 C 160.50163,241.9375 161.69255,242.8375 162.28125,243.9375 C 163.73048,246.64541 166.893,246.45968 168.7963,243.55488 C 169.65493,242.24444 171.59841,240.92407 173.11513,240.62072 C 174.71402,240.30095 176.46903,238.95515 177.29167,237.41803 C 178.07204,235.95989 179.97906,234.11089 181.5295,233.30912 C 183.33314,232.37643 184.56403,230.77358 184.94695,228.85899 C 185.51716,226.00796 185.63367,225.94646 187.41334,227.55704 C 189.9576,229.85956 189.75874,231.80546 186.86682,232.90497 C 184.3737,233.85285 182.67935,237.1546 183.77572,238.92855 C 184.91884,240.77815 188.89378,239.96832 191.0943,237.4375 C 192.28985,236.0625 193.96393,234.9375 194.81447,234.9375 C 195.66502,234.9375 198.143,234.02835 200.32109,232.91718 C 203.62546,231.23141 204.28125,230.39254 204.28125,227.85143 C 204.28125,224.07747 202.68184,220.9375 200.75949,220.9375 C 199.96122,220.9375 198.63345,222.55213 197.8089,224.52558 C 195.86541,229.17698 193.91628,228.47008 193.28125,222.88352 C 192.89295,219.46749 192.22276,218.2036 190.28125,217.22591 C 186.75321,215.44929 179.66919,215.63721 176.69446,217.58633 C 174.30987,219.14877 174.1029,219.12788 172.74389,217.18762 C 171.43404,215.31755 170.95557,215.24466 167.22324,216.34669 C 164.97566,217.01032 162.83175,218.04317 162.45899,218.6419 C 162.08624,219.24064 159.88775,220.23932 157.57347,220.86118 C 155.25919,221.48305 153.09116,222.43605 152.75562,222.97896 C 152.42008,223.52188 150.36152,224.87623 148.18103,225.98863 C 145.32228,227.44705 144.05513,228.81811 143.63789,230.90429 C 143.31965,232.49551 141.98421,234.80737 140.67026,236.04177 C 139.13801,237.48124 138.28125,239.40913 138.28125,241.41753 C 138.28125,243.18742 137.19426,246.02227 135.78125,247.9375 C 134.40625,249.80121 133.28125,252.55411 133.28125,254.05505 C 133.28125,255.556 132.15625,258.12104 130.78125,259.75513 C 129.40625,261.38923 128.28125,263.38807 128.28125,264.197 C 128.28125,265.00593 127.43114,266.74853 126.39211,268.06944 C 125.35308,269.39034 123.75395,272.03853 122.83848,273.95429 C 120.2994,279.26773 117.93032,283.29688 115.61298,286.2429 C 114.45736,287.71203 113.1999,291.05683 112.81863,293.67578 C 112.43735,296.29472 111.48547,299.43417 110.70332,300.65232 C 109.92118,301.87047 109.28125,304.21731 109.28125,305.86752 C 109.28125,307.79137 108.17831,310.12409 106.20728,312.36897 C 104.25928,314.58761 103.25198,316.7028 103.45728,318.14355 C 103.91654,321.36651 107.00055,321.64768 108.39214,318.59346 C 109.01524,317.22591 110.37019,315.886 111.40315,315.61587 C 112.49733,315.32974 113.28125,314.23776 113.28125,312.99973 C 113.28125,310.4024 115.77203,309.26999 117.79398,310.94807 C 119.85574,312.65917 119.66902,313.61357 116.78125,316.12445 C 114.44934,318.15202 113.38551,322.70843 114.89223,324.21515 C 115.22828,324.55119 117.14078,323.78914 119.14223,322.52171 C 122.71397,320.25988 122.78457,320.0899 122.96091,313.32739 z M 163.07924,234.73798 C 161.50762,233.53713 161.60205,233.13107 164.31185,229.4375 C 167.32789,225.32652 167.68643,224.68657 168.65393,221.6875 C 168.96443,220.725 170.1326,219.9375 171.24987,219.9375 C 174.26829,219.9375 173.87861,224.488 170.53125,228.32912 C 169.01875,230.06473 167.10625,232.50935 166.28125,233.76161 C 164.99845,235.70876 164.53479,235.85014 163.07924,234.73798 z M 153.83702,230.02774 C 153.15318,228.92127 154.19545,225.9375 155.26579,225.9375 C 156.62641,225.9375 158.47534,228.81445 157.80832,229.8937 C 157.01388,231.17914 154.599,231.26065 153.83702,230.02774 z M 442.09375,248 C 442.34375,247.25 441.96875,246.875 441.21875,247.125 C 440.49687,247.36562 439.70938,248.15312 439.46875,248.875 C 439.21875,249.625 439.59375,250 440.34375,249.75 C 441.06563,249.50938 441.85312,248.72188 442.09375,248 z M 571.2476,234.83917 C 573.62032,233.29907 573.64952,233.14849 572.04902,230.70583 C 571.11325,229.27766 570.25555,225.6093 570.08463,222.30416 C 569.81502,217.09062 569.53076,216.40193 567.53125,216.11795 C 566.0888,215.91309 565.28125,215.10827 565.28125,213.87556 C 565.28125,211.27499 569.19479,206.9375 571.54118,206.9375 C 573.28994,206.9375 573.38374,206.40263 572.72496,200.1875 C 572.28472,196.03421 571.29236,192.52005 570.14536,191.05264 C 569.1201,189.74097 568.28125,187.69897 568.28125,186.51487 C 568.28125,185.33076 566.94954,182.80395 565.32189,180.89973 C 563.69424,178.9955 562.34424,177.07598 562.32189,176.63412 C 562.27057,175.61953 552.15604,162.90469 549.93685,161.06506 C 547.98545,159.4474 547.72017,153.49124 549.53125,151.95839 C 550.21875,151.37651 551.84218,150.02648 553.13887,148.95833 L 555.49649,147.01623 L 559.60552,150.22686 C 568.03766,156.81541 568.60224,157.52245 567.84389,160.54396 C 567.4568,162.08622 566.27186,163.9562 565.21068,164.69949 C 564.14949,165.44277 563.28125,167.15039 563.28125,168.4942 C 563.28125,172.02556 567.11509,171.70643 571.06318,167.84644 C 576.06506,162.95618 576.65891,154.42583 572.04446,153.75086 C 570.73873,153.55986 568.31667,151.1116 565.84174,147.48105 C 561.75734,141.48954 559.73408,140.23637 553.82341,140.03718 C 551.68141,139.96499 549.81961,140.95886 547.07341,143.64045 L 543.28125,147.3434 L 543.28125,155.76788 L 543.28125,164.19237 L 550.38559,172.56041 C 554.29298,177.16282 558.56021,181.94298 559.86832,183.18297 C 561.87572,185.08584 562.24939,186.41622 562.26397,191.71225 C 562.2798,197.45888 562.48931,198.06611 564.75332,198.92688 C 567.21909,199.86437 569.03077,203.91573 567.84337,205.83699 C 566.67434,207.72851 564.33836,205.75884 563.69716,202.34095 C 562.89107,198.04412 561.74254,198.04135 559.2121,202.33013 C 558.11116,204.19608 556.32634,205.95395 555.24582,206.23651 C 553.52105,206.68755 553.28125,207.63483 553.28125,213.99726 L 553.28125,221.24425 L 558.19776,226.44274 C 562.12534,230.59558 563.25509,232.58025 563.81434,236.3096 L 564.51441,240.97797 L 566.64979,238.70773 C 567.82425,237.4591 569.89327,235.71825 571.2476,234.83917 z M 30.235939,177.4921 C 30.945549,176.63707 32.111513,175.9375 32.826969,175.9375 C 33.542426,175.9375 35.464786,174.8125 37.098881,173.4375 C 38.732975,172.0625 40.680002,170.93582 41.425606,170.93376 C 42.17121,170.93171 44.312516,169.9965 46.184063,168.85553 C 48.055611,167.71456 51.430611,166.46864 53.684063,166.08683 C 57.171042,165.49601 57.827665,164.99376 58.0929,162.71451 C 58.264308,161.24156 57.910975,159.11415 57.307717,157.98695 C 55.678905,154.94349 47.830878,155.16982 41.685225,158.4375 C 39.099206,159.8125 35.925394,160.9375 34.632311,160.9375 C 33.339227,160.9375 32.28125,161.45097 32.28125,162.07854 C 32.28125,162.70612 30.25625,165.1877 27.78125,167.59318 C 24.248547,171.02664 23.28125,172.67298 23.28125,175.25213 C 23.28125,180.90397 26.534684,181.95184 30.235939,177.4921 z M 97.182541,164.36032 C 99.886791,163.27829 101.69835,163.07889 102.95278,163.72519 C 105.5756,165.0765 107.71447,164.16443 106.20054,162.34025 C 105.56024,161.56874 104.50109,160.9375 103.84686,160.9375 C 102.58033,160.9375 99.078127,156.59847 97.995104,153.6875 C 96.965145,150.91915 90.049138,151.27552 88.768378,154.16294 C 87.889596,156.14411 85.488542,158.09214 79.723408,161.50134 C 78.582138,162.17622 78.160965,163.18166 78.57144,164.25134 C 79.443365,166.52354 91.598233,166.59472 97.182541,164.36032 z M 562.67426,161.35571 C 563.67242,158.75456 563.43785,158.29432 559.63604,155.39454 C 556.14496,152.73176 555.93354,152.69254 554.63604,154.46698 C 552.53698,157.33761 553.02137,159.73264 556.03125,161.36553 C 559.62826,163.31693 561.92297,163.31354 562.67426,161.35571 z M 34.224394,149.9938 C 35.401259,149.2492 35.447387,148.59755 34.474394,146.46206 C 33.818165,145.02179 33.28125,142.13431 33.28125,140.04543 C 33.28125,137.52997 32.612495,135.64226 31.300808,134.4552 C 30.211564,133.46945 29.037704,131.15621 28.692228,129.31467 C 28.250384,126.95943 27.063673,125.34812 24.690908,123.88167 C 22.835657,122.73506 20.859518,122.08011 20.299487,122.42623 C 18.741342,123.38922 19.089106,129.53315 20.78125,130.9375 C 22.929862,132.72069 22.630982,135.69172 20.226203,136.45497 C 19.095927,136.81371 18.345717,137.63153 18.559069,138.27236 C 19.174433,140.12067 22.49806,140.30147 23.483691,138.54024 C 23.977008,137.65873 24.80827,136.9375 25.33094,136.9375 C 26.871319,136.9375 26.416429,139.9484 24.78125,140.57587 C 22.581477,141.42001 22.910541,142.62548 26.53125,146.98673 C 29.821901,150.95041 31.608615,151.6488 34.224394,149.9938 z M 189.88779,100.9375 C 191.5504,100.9375 192.62398,100.16626 193.24872,98.523069 C 193.7536,97.195132 195.11805,95.806685 196.28084,95.437631 C 198.77361,94.646457 198.59246,91.621114 196.02268,91.12622 C 194.90425,90.910831 193.93925,91.706841 193.30891,93.364737 C 192.6887,94.996016 191.56575,95.9375 190.24026,95.9375 C 186.97259,95.9375 184.28125,97.808282 184.28125,100.07967 C 184.28125,101.55805 184.73433,101.97762 185.86304,101.54449 C 186.73302,101.21064 188.54416,100.9375 189.88779,100.9375 z M 118.4632,73.4375 C 119.0897,72.0625 119.95686,70.9375 120.39024,70.9375 C 120.82362,70.9375 122.3921,69.8125 123.87575,68.4375 C 125.45286,66.975887 127.76761,65.9375 129.44871,65.9375 C 131.53004,65.9375 132.63252,65.260649 133.44083,63.486615 C 134.71146,60.697869 138.75833,59.444101 143.28208,60.437681 C 147.34041,61.32904 148.61758,58.454097 145.28125,55.9375 C 143.80517,54.824088 143.19497,53.604738 143.59377,52.565459 C 144.54432,50.088376 147.1641,50.622545 147.87061,53.4375 C 148.42022,55.627333 149.04055,55.9375 152.87061,55.9375 C 156.70066,55.9375 157.32099,55.627333 157.87061,53.4375 C 158.71084,50.089735 157.58087,45.9375 155.82959,45.9375 C 153.27245,45.9375 152.81622,41.796873 155.17714,40.016027 C 157.03526,38.614446 157.22435,37.771641 156.65628,33.423254 C 155.84043,27.17815 154.8655,25.9375 150.77382,25.9375 C 148.39725,25.9375 147.06644,26.616403 145.87321,28.4375 C 144.91781,29.895621 143.28384,30.9375 141.95248,30.9375 C 140.69701,30.9375 138.14496,32.0625 136.28125,33.4375 C 134.41754,34.8125 132.40041,35.9375 131.79873,35.9375 C 130.56795,35.9375 123.28125,44.31663 123.28125,45.731935 C 123.28125,46.234371 122.15625,47.85935 120.78125,49.342999 C 119.40625,50.826649 118.28125,53.081673 118.28125,54.354163 C 118.28125,55.626654 117.41677,57.766792 116.36018,59.110025 C 114.35277,61.662034 111.74254,73.256831 112.79286,74.956281 C 113.95961,76.844123 117.3213,75.943707 118.4632,73.4375 z M 149.61708,38.370283 C 148.89538,36.489546 150.66503,34.438621 152.19412,35.383649 C 153.84242,36.402357 153.49755,39.9375 151.74987,39.9375 C 150.9076,39.9375 149.94785,39.232252 149.61708,38.370283 z"
     id="path2384"
     style="fill:#000000" />
</svg>
